<?xml version="1.0" standalone="no"?>
<!DOCTYPE svg PUBLIC "-//W3C//DTD SVG 1.1//EN" "http://www.w3.org/Graphics/SVG/1.1/DTD/svg11.dtd" >
<svg xmlns="http://www.w3.org/2000/svg">
<metadata></metadata>
<defs>
<font id="PlanerRegular" horiz-adv-x="1239" >
<font-face units-per-em="2048" ascent="1536" descent="-512" />
<missing-glyph horiz-adv-x="696" />
<glyph horiz-adv-x="0" />
<glyph horiz-adv-x="2048" />
<glyph unicode=" "  horiz-adv-x="696" />
<glyph unicode="&#x09;" horiz-adv-x="696" />
<glyph unicode="&#xa0;" horiz-adv-x="696" />
<glyph unicode="!" horiz-adv-x="311" d="M93 59v89q0 26 17 42t45 16q27 0 45 -16.5t18 -41.5v-89q0 -26 -18 -42.5t-45 -16.5q-28 0 -45 16.5t-17 42.5zM93 468v908q0 26 17 42t45 16q27 0 45 -16.5t18 -41.5v-908q0 -25 -18 -42t-45 -17q-28 0 -45 17t-17 42z" />
<glyph unicode="&#x22;" horiz-adv-x="630" d="M94 1384q0 26 18 43.5t45 17.5t44.5 -17.5t17.5 -43.5v-321q0 -26 -17 -42t-45 -16q-27 0 -44.5 16t-17.5 42zM412 1063v321q0 26 17 43.5t45 17.5q27 0 45 -17.5t18 -43.5v-321q0 -26 -17.5 -42t-45.5 -16t-45 16t-17 42z" />
<glyph unicode="#" horiz-adv-x="1230" d="M82 428q0 26 18.5 43t48.5 17h134l84 384h-207q-27 0 -45 17t-18 43t18.5 43.5t48.5 17.5h228l80 372q6 23 24 38.5t44 15.5q27 0 43.5 -15t16.5 -39q0 -5 -2 -15l-79 -357h314l79 372q6 23 24.5 39t43.5 16q26 0 43 -15.5t17 -39.5q0 -4 -2 -14l-78 -358h124 q31 0 49 -17.5t18 -43.5t-17.5 -43t-45.5 -17h-152l-83 -384h214q31 0 49 -17t18 -43q0 -27 -17.5 -44t-45.5 -17h-243l-68 -313q-5 -23 -23.5 -38.5t-42.5 -15.5q-26 0 -42.5 15.5t-16.5 38.5q0 8 1 13l64 300h-312l-67 -314q-5 -23 -24.5 -38t-43.5 -15q-25 0 -42 16.5 t-17 39.5q0 3 2 11l63 300h-114q-27 0 -45 17.5t-18 43.5zM412 488h312l83 384h-312z" />
<glyph unicode="$" horiz-adv-x="1079" d="M93 59q0 23 18 40.5t43 17.5h342v574q-56 12 -93 21.5t-83.5 25.5t-76 34.5t-61 46.5t-49 62.5t-29 82.5t-11.5 106q0 181 102.5 266t300.5 95v72q0 20 14 33.5t36 13.5t36.5 -15t14.5 -37v-64h295q29 0 47 -18t18 -41t-18.5 -41t-43.5 -18h-298v-523q101 -19 168 -43.5 t121 -65.5t79.5 -104t25.5 -152q0 -211 -99 -313.5t-295 -112.5v-68q0 -23 -14.5 -37t-36.5 -14q-21 0 -35.5 14t-14.5 33v70h-342q-25 0 -43 17.5t-18 41.5zM216 1070q0 -54 14 -94.5t35 -66t60 -44.5t76 -29.5t95 -22.5v498q-280 -11 -280 -241zM597 122q134 8 202 82 t68 224q0 60 -15.5 100t-52.5 67t-82 43t-120 32v-548z" />
<glyph unicode="%" horiz-adv-x="1273" d="M101 46q0 20 12 36l968 1334q18 24 45 24q22 0 39 -16.5t17 -35.5q0 -18 -12 -34l-971 -1337q-16 -24 -43 -24q-22 0 -38.5 17t-16.5 36zM118 1149q0 145 52.5 209.5t166.5 64.5q113 0 166.5 -65t53.5 -211q0 -147 -54.5 -216t-165.5 -69q-112 0 -165.5 69t-53.5 218z M203 1149q0 -102 30.5 -155t103.5 -53q74 0 104.5 52t30.5 154q0 99 -30.5 147.5t-104.5 48.5t-104 -47t-30 -147zM726 285q0 145 53 210t167 65q113 0 166.5 -65.5t53.5 -211.5q0 -147 -54.5 -216t-165.5 -69q-112 0 -166 69t-54 218zM811 285q0 -102 31 -155t104 -53 q74 0 104 52t30 154q0 99 -30 148t-104 49t-104.5 -47.5t-30.5 -147.5z" />
<glyph unicode="&#x26;" horiz-adv-x="1236" d="M64 332q0 39 13.5 76.5t31 64.5t50 58t54.5 48t61 46t54 41l134 106l-95 119q-84 104 -84 244q0 131 89 215t214 84h65q130 0 219 -78.5t89 -220.5q0 -20 -4.5 -40.5t-10.5 -37.5t-19.5 -37t-22 -32.5t-29 -32.5t-30 -29.5t-34.5 -29.5t-33.5 -26.5t-36 -27.5t-33.5 -25 l-80 -63l294 -370l14 155q2 28 15 40.5t42 10.5q50 -4 50 -52q0 -11 -1 -17l-33 -246l139 -175q18 -22 18 -43q0 -20 -21 -39.5t-42 -19.5q-24 0 -47 29l-102 128q-24 -59 -70 -96q-64 -58 -187 -58h-329q-126 0 -214 93.5t-88 237.5zM184 332q0 -100 52 -159t130 -59h329 q41 0 64 6t44 25q55 44 74 104l-343 432l-132 -103q-18 -14 -53 -40.5t-52.5 -40t-43 -36.5t-38 -40.5t-22 -41t-9.5 -47.5zM402 1135q0 -102 58 -173l94 -118l94 74q109 83 139 114q52 54 52 103q0 93 -50 139t-138 46h-65q-80 0 -132 -50t-52 -135z" />
<glyph unicode="'" horiz-adv-x="311" d="M93 1063v322q0 26 17 43t45 17q27 0 45 -17t18 -43v-322q0 -25 -18 -41.5t-45 -16.5q-28 0 -45 16t-17 42z" />
<glyph unicode="(" horiz-adv-x="489" d="M94 612q0 97 27 235.5t63 258.5t61.5 198t33.5 96q13 38 56 38q25 0 42 -15t17 -34q0 -9 -6 -29l-6 -18q-6 -19 -13.5 -41.5t-19 -58.5t-22.5 -73.5t-23.5 -85t-23.5 -93t-21.5 -96.5t-18 -98t-12 -95t-4.5 -89q0 -141 43 -332t86 -325t43 -138q0 -22 -17.5 -38 t-41.5 -16q-40 0 -55 36q-2 4 -20 56.5t-46.5 146t-55.5 196t-46.5 217t-19.5 197.5z" />
<glyph unicode=")" horiz-adv-x="489" d="M94 -183q0 12 4 23l6 16q5 16 15 46.5t22.5 71t26.5 90.5t27.5 103.5t26.5 112.5t22.5 115t15.5 113t6 104q0 41 -4.5 89t-12 95t-18 98t-21.5 96.5t-23.5 93t-23.5 85t-22.5 73.5t-19 58.5t-13.5 41.5l-6 18q-6 20 -6 29q0 19 17 34t42 15q43 0 56 -38q8 -18 33.5 -96 t61.5 -198t63 -258.5t27 -235.5q0 -132 -48.5 -338t-89.5 -333t-49 -142q-15 -36 -55 -36q-25 0 -42.5 16t-17.5 38z" />
<glyph unicode="*" horiz-adv-x="841" d="M119 1208q0 24 16.5 38.5t38.5 14.5q8 0 17 -3l177 -61v188q0 23 17 38t39 15q25 0 40.5 -16t15.5 -38v-187l173 55q11 3 21 3q22 0 37 -14t15 -38q0 -39 -39 -51l-179 -57l114 -160q7 -13 7 -25q0 -22 -16 -36.5t-38 -14.5q-28 0 -46 23l-110 150l-108 -148 q-17 -23 -46 -23q-22 0 -38 15.5t-16 34.5q0 16 13 35l112 154l-179 59q-38 13 -38 49z" />
<glyph unicode="+" horiz-adv-x="1200" d="M97 516q0 23 17.5 40.5t45.5 17.5h377v383q0 25 19.5 41t45.5 16q27 0 43.5 -16t16.5 -40v-384h381q27 0 44.5 -17t17.5 -43q0 -25 -17.5 -41.5t-44.5 -16.5h-381v-386q0 -24 -18 -40t-46 -16q-24 0 -42.5 17.5t-18.5 42.5v382h-380q-26 1 -43 18t-17 42z" />
<glyph unicode="," horiz-adv-x="393" d="M103 -68q0 25 29 39q17 10 29 29t12 43v123q0 27 17 44.5t46 17.5q27 0 46 -19t19 -43v-139q0 -57 -41 -99.5t-91 -54.5q-27 -2 -45 12t-20 39q0 1 -0.5 3.5t-0.5 4.5z" />
<glyph unicode="-" horiz-adv-x="870" d="M96 536q0 23 17.5 40t44.5 17h557q27 0 43.5 -16.5t16.5 -42.5q0 -27 -16 -43t-44 -16h-556q-63 2 -63 61z" />
<glyph unicode="." horiz-adv-x="319" d="M94 48v79q0 27 18.5 45.5t47.5 18.5q28 0 48 -18.5t20 -45.5v-75q0 -30 -20 -49t-48 -19q-29 0 -47.5 18.5t-18.5 45.5z" />
<glyph unicode="/" horiz-adv-x="890" d="M95 49q0 10 5 22l591 1330q16 34 52 34q25 0 40 -14.5t15 -35.5q0 -16 -6 -28l-590 -1327q-15 -33 -51 -33q-23 0 -39.5 17t-16.5 35z" />
<glyph unicode="0" horiz-adv-x="1165" d="M97 474v370q0 259 129.5 388.5t356.5 129.5q233 0 360.5 -131.5t127.5 -386.5v-370q0 -240 -130.5 -366t-356.5 -126q-225 0 -356 127t-131 365zM223 474q0 -182 97 -278.5t264 -96.5t263.5 96.5t96.5 278.5v370q0 197 -92 299t-269 102q-176 0 -268 -100t-92 -301v-370z " />
<glyph unicode="1" horiz-adv-x="700" d="M95 1068q0 36 29 52l344 229q22 15 51 15q40 0 64 -24t24 -64v-1213q0 -28 -18.5 -46.5t-45.5 -18.5t-45.5 17.5t-18.5 43.5v1153l-283 -193q-17 -11 -37 -11q-26 0 -45 18t-19 42z" />
<glyph unicode="2" horiz-adv-x="1083" d="M96 74q0 32 27 56l494 463q59 56 96 100t66.5 111t29.5 139v61q0 113 -85 177t-208 64h-343q-25 0 -43.5 17.5t-18.5 40.5t18.5 41t43.5 18h345q179 0 295.5 -96t116.5 -262v-58q0 -71 -16 -132.5t-48.5 -114.5t-68 -94t-88.5 -91l-424 -397h639q29 0 47 -17.5t18 -40.5 t-18 -41t-43 -18h-755q-31 0 -54 22.5t-23 51.5z" />
<glyph unicode="3" horiz-adv-x="1024" d="M96 59q0 23 18.5 40.5t43.5 17.5h421q97 0 162.5 69.5t65.5 181.5q0 117 -66 195.5t-162 78.5h-256q-28 0 -47 17.5t-19 40.5t18.5 41t43.5 18h272q91 0 153.5 65.5t62.5 167.5q0 108 -66 180.5t-162 72.5h-417q-28 0 -47 17.5t-19 40.5t18.5 41t43.5 18h421 q150 0 250.5 -106.5t100.5 -263.5q0 -101 -47.5 -177.5t-128.5 -115.5q82 -45 129 -133t47 -198q0 -162 -100.5 -265t-250.5 -103h-421q-25 0 -43.5 18t-18.5 41z" />
<glyph unicode="4" horiz-adv-x="1165" d="M97 420q0 18 12 54l341 851q15 35 56 35q28 0 47 -17.5t19 -40.5q0 -12 -4 -21l-334 -839q-9 -21 -9 -31q0 -20 42 -20h461v293q0 28 18 45.5t46 17.5t45.5 -16.5t17.5 -42.5v-297h153q28 0 45.5 -17t17.5 -43t-17.5 -43t-45.5 -17h-153v-208q0 -29 -17.5 -47t-45.5 -18 t-46 17.5t-18 43.5v212h-480q-65 0 -108 43t-43 106z" />
<glyph unicode="5" horiz-adv-x="1038" d="M96 58q0 26 17.5 43.5t44.5 17.5h337q67 0 123 13.5t102 41t72.5 76.5t26.5 114v140q0 111 -82 168t-211 57h-335q-43 0 -69 25t-26 66v429q0 41 26.5 68t68.5 27h648q27 0 45.5 -17t18.5 -43t-18.5 -42t-45.5 -16h-617v-383h306q119 0 211 -35.5t148.5 -113.5t56.5 -190 v-140q0 -96 -34 -167.5t-96 -113.5t-141 -62.5t-176 -20.5h-339q-27 0 -44.5 16t-17.5 42z" />
<glyph unicode="6" horiz-adv-x="1095" d="M96 471v397q0 246 130 369t370 123h295q29 0 47 -17.5t18 -40.5q0 -22 -18 -40t-43 -18h-299q-169 0 -264.5 -86.5t-103.5 -257.5v-53h337q436 -2 436 -362v-84q0 -182 -115.5 -292.5t-332.5 -110.5q-229 0 -343 114t-114 359zM226 475q0 -197 78.5 -278.5t248.5 -81.5 q161 0 239.5 75.5t78.5 210.5v84q0 246 -310 246h-335v-256z" />
<glyph unicode="7" horiz-adv-x="1036" d="M96 1302q0 23 18.5 40.5t43.5 17.5h645q57 0 98 -40t41 -96q0 -28 -11 -50l-501 -1147q-13 -28 -52 -28q-28 0 -46.5 18t-18.5 41q0 10 3 17l487 1108q12 26 12 37q0 1 -0.5 3t-0.5 3q-5 18 -43 18h-609q-28 0 -47 17.5t-19 40.5z" />
<glyph unicode="8" horiz-adv-x="1157" d="M97 369q0 111 51 199.5t140 127.5q-86 33 -138.5 113t-52.5 184q0 155 100 261t250 106h265q150 0 250.5 -106t100.5 -263q0 -103 -53 -184t-139 -110q88 -35 140 -126.5t52 -203.5q0 -162 -100.5 -265.5t-250.5 -103.5h-264q-150 0 -250.5 103.5t-100.5 267.5zM219 369 q0 -113 65.5 -183.5t162.5 -70.5h265q97 0 162.5 70t65.5 182q0 117 -66 195.5t-162 78.5h-265q-96 0 -162 -78t-66 -194zM219 993q0 -103 64 -168.5t159 -67.5h282q92 0 154 66t62 168q0 107 -66 180t-162 73h-265q-96 0 -162 -72.5t-66 -178.5z" />
<glyph unicode="9" horiz-adv-x="1095" d="M96 873v85q0 182 115.5 292t333.5 110q229 0 342.5 -113t113.5 -358v-398q0 -247 -129.5 -370t-369.5 -123h-296q-29 0 -47 17.5t-18 41.5q0 22 18 40.5t43 18.5h300q169 0 264.5 87t102.5 258v51h-337q-215 1 -325.5 91.5t-110.5 269.5zM226 873q0 -245 310 -245h335 v257q0 197 -78 278t-248 81q-161 0 -240 -75.5t-79 -210.5v-85z" />
<glyph unicode=":" horiz-adv-x="319" d="M94 57v78q0 27 18.5 46t47.5 19q28 0 48 -19t20 -46v-74q0 -30 -20 -48.5t-48 -18.5q-29 0 -47.5 18t-18.5 45zM94 735v78q0 26 18 45t48 19q28 0 48 -19t20 -45v-74q0 -30 -20 -49t-48 -19q-30 0 -48 18.5t-18 45.5z" />
<glyph unicode=";" horiz-adv-x="397" d="M103 -73q0 26 29 38q17 9 29 29t12 44v122q0 25 17.5 44t45.5 19q26 0 45.5 -19.5t19.5 -43.5v-138q0 -58 -40.5 -99.5t-91.5 -55.5q-27 -1 -45 13t-20 38q0 2 -0.5 5t-0.5 4zM171 735v77q0 26 18.5 45.5t48.5 19.5q28 0 47.5 -19.5t19.5 -45.5v-73q0 -30 -19.5 -49.5 t-47.5 -19.5q-30 0 -48.5 19t-18.5 46z" />
<glyph unicode="&#x3c;" horiz-adv-x="933" d="M99 635q0 47 43 76l601 390q13 8 30 8q25 0 42.5 -15.5t17.5 -41.5q0 -30 -23 -44l-536 -349q-14 -9 -14 -23t13 -23l530 -364q28 -19 28 -50q0 -23 -17 -39t-39 -16q-23 0 -40 12l-598 404q-38 25 -38 75z" />
<glyph unicode="=" horiz-adv-x="1200" d="M97 385q0 23 18 40.5t45 17.5h883q27 0 44.5 -17t17.5 -43q0 -25 -17.5 -41.5t-44.5 -16.5h-885q-27 3 -44 19t-17 41zM97 741q0 23 17.5 41t45.5 18h883q27 0 44.5 -17.5t17.5 -43.5t-17.5 -42t-44.5 -16h-886q-27 4 -43.5 19.5t-16.5 40.5z" />
<glyph unicode="&#x3e;" horiz-adv-x="933" d="M104 1052q0 25 18 41t42 16q17 0 30 -8l601 -390q44 -29 44 -76q0 -49 -39 -75l-598 -404q-17 -12 -40 -12q-22 0 -38.5 16t-16.5 39q0 31 28 50l529 364q13 9 13 23t-13 23l-536 349q-24 15 -24 44z" />
<glyph unicode="?" horiz-adv-x="931" d="M96 1376q0 23 16.5 40.5t44.5 17.5h277q189 0 296 -91t107 -261q0 -90 -38.5 -162t-119.5 -144l-134 -120q-78 -72 -78 -144v-45q0 -28 -17.5 -45t-45.5 -17q-27 0 -44.5 16.5t-17.5 41.5v49q0 41 8 73t27.5 60.5t37.5 47.5t52 51l126 116q113 104 113 222 q0 115 -68.5 175t-203.5 60h-273q-31 0 -48 16.5t-17 42.5zM338 55v85q0 25 19.5 43t48.5 18q26 0 45.5 -18t19.5 -43v-81q0 -29 -19 -47t-46 -18q-29 0 -48.5 18t-19.5 43z" />
<glyph unicode="@" horiz-adv-x="1208" d="M96 468v379q0 265 131.5 392t375.5 127q252 0 381.5 -131t129.5 -395q0 -196 -104 -325t-238 -129h-228q-81 0 -139 57t-58 137q0 77 58 133.5t139 56.5h193v73q0 45 -25.5 75t-66.5 30h-210q-24 0 -38 12.5t-14 31.5q0 21 14.5 35.5t37.5 14.5h220q80 0 133 -56t53 -139 v-348q79 47 122 135.5t43 212.5q0 422 -402 422q-202 0 -301.5 -104.5t-99.5 -317.5v-379q0 -191 103 -293t278 -102q81 0 166 25q4 1 12 1q20 0 33.5 -15t15.5 -38q1 -16 -9 -28.5t-27 -17.5q-78 -25 -191 -25q-226 0 -357 127t-131 366zM450 580q0 -40 28 -69t66 -29h193 v191h-193q-38 0 -66 -27.5t-28 -65.5z" />
<glyph unicode="A" d="M75 59q0 9 3 19l372 1233q17 54 64 88.5t107 34.5t106 -33.5t63 -88.5l374 -1241q2 -10 2 -14q0 -21 -16.5 -38t-43.5 -18q-22 -2 -40.5 11t-24.5 33l-119 379h-604l-117 -377q-6 -21 -24.5 -34.5t-41.5 -11.5q-27 1 -43.5 17.5t-16.5 40.5zM354 543h533l-222 736 q-11 36 -43 36t-43 -36z" />
<glyph unicode="B" horiz-adv-x="1277" d="M191 96v1242q0 41 28.5 68.5t71.5 27.5h458q157 0 269 -111.5t112 -266.5q0 -97 -50 -178t-133 -128q106 -43 172 -138.5t66 -213.5q0 -165 -118.5 -281.5t-285.5 -116.5h-490q-43 0 -71.5 27.5t-28.5 68.5zM319 117h462q114 0 197 82.5t83 198.5t-83 200t-197 84h-462 v-565zM319 799h430q105 0 180.5 75.5t75.5 181.5t-76 183t-180 77h-430v-517z" />
<glyph unicode="C" horiz-adv-x="1132" d="M140 485v451q0 498 487 498h349q25 0 43.5 -18t18.5 -41t-18.5 -41t-43.5 -18h-349q-358 0 -358 -380v-451q0 -164 94.5 -266t263.5 -102h345q28 0 47 -17.5t19 -40.5t-18.5 -41t-43.5 -18h-349q-229 0 -358 133t-129 352z" />
<glyph unicode="D" horiz-adv-x="1310" d="M191 96v1242q0 41 28.5 68.5t71.5 27.5h395q487 0 487 -498v-451q0 -219 -129 -352t-358 -133h-395q-43 0 -71.5 27.5t-28.5 68.5zM319 117h367q169 0 263 102t94 266v451q0 380 -357 380h-367v-1199z" />
<glyph unicode="E" horiz-adv-x="1150" d="M191 96v1242q0 41 28.5 68.5t71.5 27.5h697q32 0 50 -17t18 -44q0 -26 -17.5 -43t-46.5 -17h-673v-508h551q30 0 49 -17t19 -43q0 -27 -18.5 -44t-45.5 -17h-555v-563h669q31 0 49.5 -17t18.5 -43t-17.5 -43.5t-46.5 -17.5h-701q-43 0 -71.5 27.5t-28.5 68.5z" />
<glyph unicode="F" horiz-adv-x="1150" d="M191 61v1277q0 41 28.5 68.5t71.5 27.5h697q32 0 50 -17t18 -44q0 -26 -17.5 -43t-46.5 -17h-673v-508h551q30 0 49 -17t19 -43q0 -27 -18.5 -44t-45.5 -17h-555v-619q0 -28 -18 -46.5t-46 -18.5t-46 17.5t-18 43.5z" />
<glyph unicode="G" horiz-adv-x="1316" d="M140 485v451q0 498 487 498h388q24 0 43 -18t19 -41t-19 -41t-43 -18h-388q-357 0 -357 -380v-451q0 -164 94 -266t263 -102h393v502h-233q-29 0 -47.5 17.5t-18.5 41.5q0 23 18.5 40.5t43.5 17.5h265q43 0 71.5 -27.5t28.5 -68.5v-544q0 -41 -28.5 -68.5t-71.5 -27.5 h-421q-229 0 -358 133t-129 352z" />
<glyph unicode="H" horiz-adv-x="1406" d="M191 61v1312q0 26 18.5 43.5t45.5 17.5q28 0 46 -18.5t18 -46.5v-591h769v595q0 26 18.5 43.5t46.5 17.5q27 0 45.5 -18t18.5 -47v-1304q0 -29 -18.5 -47t-45.5 -18q-28 0 -46.5 17.5t-18.5 43.5v599h-769v-595q0 -28 -18 -46.5t-46 -18.5q-27 0 -45.5 17.5t-18.5 43.5z " />
<glyph unicode="I" horiz-adv-x="507" d="M191 61v1312q0 26 18 43.5t46 17.5t46 -18.5t18 -46.5v-1304q0 -28 -18 -46.5t-46 -18.5t-46 17.5t-18 43.5z" />
<glyph unicode="J" horiz-adv-x="663" d="M75 59q0 23 18 40.5t44 17.5q39 0 60 0.5t46.5 5t37 11t25.5 21.5t19 33.5t10.5 50t7 68t2.5 89.5v977q0 26 18.5 43.5t45.5 17.5q28 0 46.5 -18t20.5 -47v-992q0 -67 -4.5 -119.5t-16.5 -91.5t-25 -66.5t-37 -46t-46 -29t-59 -16t-67.5 -7t-79.5 -1.5q-30 0 -48 17.5 t-18 41.5z" />
<glyph unicode="K" horiz-adv-x="1159" d="M191 61v1312q0 26 17.5 43.5t46.5 17.5q28 0 46 -17.5t18 -43.5v-601h134q8 0 16.5 4.5t19 15.5t16 17.5t17.5 22t13 16.5l413 562q17 24 50 24q28 0 46 -17.5t18 -43.5q0 -19 -16 -40l-466 -622l493 -614q12 -15 12 -36q0 -26 -18 -43.5t-46 -17.5q-33 0 -49 23 l-453 577q-34 47 -55 47h-145v-582q0 -28 -18 -46.5t-46 -18.5q-29 0 -46.5 17.5t-17.5 43.5z" />
<glyph unicode="L" horiz-adv-x="1067" d="M191 96v1277q0 26 18.5 43.5t45.5 17.5q28 0 46.5 -17.5t18.5 -43.5v-1252h606q30 0 49 -17t19 -43t-18.5 -43.5t-45.5 -17.5h-638q-43 0 -72 27t-29 69z" />
<glyph unicode="M" horiz-adv-x="1642" d="M171 61v1221q0 62 45.5 107t109.5 45q53 0 93.5 -29t54.5 -76l327 -1100l349 1104q14 44 55.5 72.5t92.5 28.5q64 0 109.5 -45t45.5 -107v-1221q0 -26 -18 -43.5t-46 -17.5t-46 17.5t-18 43.5v1211q0 40 -22 43q-20 3 -33 -35l-391 -1223q-18 -57 -79 -57q-65 0 -82 57 l-364 1222q-5 19 -13.5 28.5t-19.5 7.5q-23 -5 -23 -43v-1211q0 -26 -17.5 -43.5t-45.5 -17.5t-46 17.5t-18 43.5z" />
<glyph unicode="N" horiz-adv-x="1384" d="M171 61v1215q0 66 46 112t115 46q47 0 87 -25.5t59 -66.5l544 -1191q16 -36 40 -32q26 3 26 43v1211q0 26 18 43.5t46 17.5t46 -17.5t18 -43.5v-1215q0 -66 -46 -112t-115 -46q-47 0 -87 25.5t-59 66.5l-543 1191q-9 20 -25 28.5t-29 -1.5t-13 -38v-1211q0 -26 -18 -43.5 t-46 -17.5q-27 0 -45.5 17.5t-18.5 43.5z" />
<glyph unicode="O" horiz-adv-x="1343" d="M140 485v451q0 498 487 498h93q487 0 487 -498v-451q0 -219 -129 -352t-358 -133h-93q-228 0 -357.5 133t-129.5 352zM271 485q0 -164 94 -266t262 -102h93q169 0 263 102t94 266v451q0 380 -357 380h-93q-356 0 -356 -380v-451z" />
<glyph unicode="P" horiz-adv-x="1220" d="M191 61v1277q0 41 28 68.5t71 27.5h459q158 0 269 -111.5t111 -264.5q0 -155 -111.5 -265.5t-268.5 -110.5h-430v-617q0 -28 -18 -46.5t-46 -18.5q-29 0 -46.5 17.5t-17.5 43.5zM319 799h430q104 0 180 76.5t76 182.5t-76 182t-180 76h-430v-517z" />
<glyph unicode="Q" horiz-adv-x="1343" d="M140 483v450q0 498 487 498h93q487 0 487 -498v-450q0 -142 -57 -250t-165 -167l185 -183q21 -18 21 -47q0 -27 -18 -45t-47 -18q-30 0 -48 20l-222 220q-65 -15 -136 -15h-93q-228 0 -357.5 133t-129.5 352zM271 483q0 -164 94 -266.5t262 -102.5h93q169 0 263 102.5 t94 266.5v450q0 380 -357 380h-93q-356 0 -356 -380v-450z" />
<glyph unicode="R" horiz-adv-x="1247" d="M191 61v1277q0 41 28 68.5t71 27.5h459q158 0 269 -111.5t111 -264.5q0 -136 -92 -240t-225 -121l-37 -4l323 -604q8 -16 8 -28q0 -25 -19 -43t-46 -18q-38 0 -57 35l-351 647h-314v-621q0 -26 -18 -43.5t-46 -17.5q-29 0 -46.5 17.5t-17.5 43.5zM319 799h430 q104 0 180 76.5t76 182.5t-76 182t-180 76h-430v-517z" />
<glyph unicode="S" horiz-adv-x="1087" d="M96 59q0 23 18 40.5t43 17.5h395q160 0 239 73.5t79 237.5q0 44 -8 76.5t-27 57.5t-42.5 42.5t-64 32t-80.5 24t-102 21.5q-93 18 -141 30t-118 41t-104 65.5t-60.5 101t-26.5 150.5q0 191 117 277.5t337 86.5h344q29 0 47.5 -18t18.5 -41t-18.5 -41t-43.5 -18h-348 q-166 0 -248.5 -57t-82.5 -189q0 -31 3.5 -56.5t12.5 -47t18.5 -38.5t27 -31.5t32 -25t40 -20t45 -16t53 -13.5t56.5 -11.5t63 -11.5q109 -19 180 -42.5t130 -65t86.5 -106t27.5 -157.5q0 -223 -111 -325.5t-331 -102.5h-395q-25 0 -43 17.5t-18 41.5z" />
<glyph unicode="T" horiz-adv-x="1193" d="M75 1375q0 23 18.5 41t43.5 18h918q29 0 47 -18t18 -41t-18 -41t-43 -18h-396v-1257q0 -23 -19.5 -41t-43.5 -18q-27 0 -45 17.5t-18 41.5v1257h-400q-25 0 -43.5 18t-18.5 41z" />
<glyph unicode="U" horiz-adv-x="1351" d="M188 423v951q0 23 19.5 41t45.5 18q25 0 43.5 -18t18.5 -41v-951q0 -141 76 -224.5t180 -83.5h249q111 0 175 84t64 224v947q0 27 18.5 45t43.5 18t44.5 -18t19.5 -41v-951q0 -192 -98.5 -309.5t-267.5 -117.5h-248q-161 0 -272 113.5t-111 313.5z" />
<glyph unicode="V" horiz-adv-x="1185" d="M75 1372q0 23 16.5 41.5t41.5 19.5q55 3 70 -53l342 -1224q10 -37 49 -37q38 0 48 37l342 1225q15 55 73 52q26 -1 40.5 -18.5t14.5 -40.5q0 -2 -3 -17l-341 -1232q-15 -54 -63.5 -89.5t-110.5 -35.5q-64 0 -113 36.5t-64 93.5l-339 1227z" />
<glyph unicode="W" horiz-adv-x="1536" d="M75 1375q0 27 20 43t45 16q26 0 44 -16t21 -39l160 -1220q3 -26 14 -35.5t24 -1t22 29.5l273 653q8 18 26.5 32t44.5 14q52 0 70 -43l273 -656q5 -13 12 -21.5t14.5 -10.5t14.5 1t12.5 13t7.5 25l163 1225q3 21 20.5 35.5t42.5 14.5q29 0 48 -20t15 -49l-167 -1239 q-8 -56 -49 -91t-100 -35q-48 0 -87 26t-56 65l-234 564l-235 -565q-16 -39 -55 -64.5t-87 -25.5q-59 0 -100 36t-48 91l-168 1240q0 1 -0.5 3.5t-0.5 4.5z" />
<glyph unicode="X" horiz-adv-x="1134" d="M75 61q0 15 12 32l402 618l-407 638q-7 14 -7 24q0 26 18 43.5t46 17.5q35 0 55 -32l376 -588l375 592q19 28 54 28q27 0 44.5 -18t17.5 -43q0 -18 -11 -35l-396 -627l397 -619q12 -17 12 -31q0 -26 -18 -43.5t-46 -17.5q-35 0 -54 30l-374 583l-377 -585 q-17 -28 -55 -28q-28 0 -46 17.5t-18 43.5z" />
<glyph unicode="Y" horiz-adv-x="1120" d="M75 1372q0 25 19 42.5t51 17.5q31 0 49 -29l370 -607l362 606q17 30 53 30q31 0 49 -18t18 -42q0 -16 -8 -29l-410 -690v-592q0 -26 -18 -43.5t-46 -17.5t-46 17.5t-18 43.5v592l-415 685q-10 17 -10 34z" />
<glyph unicode="Z" horiz-adv-x="1114" d="M96 140q0 46 23 78l755 1040q18 25 18 37q0 1 -0.5 2t-0.5 2q-4 17 -43 17h-691q-26 0 -43.5 18t-17.5 41t17.5 41t43.5 18h720q61 0 102 -40.5t41 -100.5q0 -41 -32 -87l-748 -1031q-18 -25 -18 -36v-4q6 -17 43 -17h687q30 0 49 -16.5t19 -42.5q0 -25 -18.5 -42 t-45.5 -17h-718q-61 0 -101.5 40.5t-40.5 99.5z" />
<glyph unicode="[" horiz-adv-x="600" d="M95 -158v1584q0 38 25.5 62.5t65.5 24.5h257q29 0 46.5 -15.5t17.5 -40.5q0 -24 -16.5 -40.5t-43.5 -16.5h-228v-1533h224q29 0 46.5 -15.5t17.5 -39.5t-17 -41t-43 -17h-261q-40 0 -65.5 25t-25.5 63z" />
<glyph unicode="\" horiz-adv-x="890" d="M94 1386q0 20 16 34.5t40 14.5q35 0 51 -34l592 -1330q5 -13 5 -23q0 -18 -16.5 -34t-38.5 -16q-38 0 -52 32l-590 1327q-7 17 -7 29z" />
<glyph unicode="]" horiz-adv-x="600" d="M95 -188q0 24 17.5 39.5t46.5 15.5h224v1533h-228q-26 0 -43 16.5t-17 40.5q0 25 18 40.5t46 15.5h258q40 0 65 -24.5t25 -62.5v-1584q0 -38 -25 -63t-65 -25h-262q-26 0 -43 16.5t-17 41.5z" />
<glyph unicode="^" horiz-adv-x="1175" d="M107 792q0 12 7 24l389 600q27 40 79 40q51 0 77 -40l400 -594q10 -14 10 -31q0 -22 -16.5 -37.5t-40.5 -15.5q-34 0 -52 26l-358 521q-9 13 -22 13q-11 0 -20 -13l-348 -527q-15 -22 -45 -22q-26 0 -43 16.5t-17 39.5z" />
<glyph unicode="_" horiz-adv-x="1083" d="M96 -190q0 23 17.5 40t45.5 17h769q28 0 44.5 -16.5t16.5 -43.5q0 -25 -16.5 -41t-44.5 -16h-772q-27 3 -43.5 19t-16.5 41z" />
<glyph unicode="`" horiz-adv-x="548" d="M61 1407q0 24 17.5 40.5t39.5 16.5q11 0 27 -7l309 -146q35 -17 35 -52q0 -23 -16.5 -37.5t-36.5 -14.5q-16 0 -34 8l-304 141q-37 17 -37 51z" />
<glyph unicode="a" horiz-adv-x="966" d="M79 295q0 122 88 210t213 88h345v143q0 85 -46.5 140t-121.5 55h-357q-29 0 -46 15.5t-17 40.5q0 23 16 39t43 16h368q123 0 203.5 -85.5t80.5 -213.5v-657q0 -37 -25.5 -61.5t-63.5 -24.5h-379q-125 0 -213 86.5t-88 208.5zM199 295q0 -74 54 -127t127 -53h345v364h-345 q-72 0 -126.5 -55t-54.5 -129z" />
<glyph unicode="b" horiz-adv-x="1017" d="M137 90v1285q0 25 17.5 42t43.5 17t43.5 -17t17.5 -42v-333h330q136 0 231.5 -94t95.5 -249v-312q0 -48 -10.5 -98.5t-36 -103t-62 -93t-94.5 -66.5t-128 -26h-355q-38 0 -65.5 27t-27.5 63zM259 117h326q88 0 148 77.5t60 198.5v306q0 101 -60.5 166.5t-143.5 65.5h-330 v-814z" />
<glyph unicode="c" horiz-adv-x="878" d="M103 432v192q0 206 100.5 312t302.5 106h230q26 0 42 -16t16 -39q0 -24 -16 -40t-42 -16h-230q-146 0 -214 -76t-68 -231v-193q0 -163 70.5 -241.5t211.5 -78.5h230q26 0 42 -16t16 -40t-16 -39.5t-42 -15.5h-230q-203 0 -303 106.5t-100 325.5z" />
<glyph unicode="d" horiz-adv-x="1017" d="M102 387v312q0 155 96 249t231 94h330v333q0 25 17 42t44 17q25 0 43.5 -17t18.5 -42v-1285q0 -36 -28 -63t-66 -27h-355q-70 0 -128 26t-94.5 66.5t-62 93t-36 103t-10.5 98.5zM225 393q0 -121 60 -198.5t148 -77.5h326v814h-330q-82 0 -143 -65.5t-61 -166.5v-306z" />
<glyph unicode="e" horiz-adv-x="974" d="M102 485v160q0 184 110.5 290.5t278.5 106.5q191 0 295 -102.5t104 -294.5v-97q0 -36 -25.5 -60t-64.5 -24h-573q1 -129 23.5 -203.5t78.5 -112t156 -37.5h311q28 0 44.5 -16t16.5 -40t-15.5 -39.5t-41.5 -15.5h-316q-112 0 -187 29t-117.5 92.5t-60 150t-17.5 213.5z M225 565h541v89q-2 136 -71 206.5t-204 70.5q-121 0 -192.5 -75t-73.5 -201v-90z" />
<glyph unicode="f" horiz-adv-x="684" d="M48 986q0 25 16 40.5t42 15.5h94q15 192 107.5 289t258.5 124q31 4 50 -12t19 -42q0 -22 -12.5 -36.5t-32.5 -18.5q-130 -20 -194 -97t-73 -207h257q25 0 41 -15.5t16 -40.5q0 -23 -16 -38.5t-41 -15.5h-257v-872q0 -27 -18 -43.5t-44 -16.5t-43.5 17t-17.5 42v872h-94 q-26 0 -42 16t-16 39z" />
<glyph unicode="g" horiz-adv-x="1017" d="M103 342v312q0 48 10.5 98.5t35.5 103t61.5 93.5t94.5 67t128 26h359q39 0 64.5 -25t25.5 -62v-947q0 -122 -18 -206.5t-61.5 -145.5t-118 -90t-184.5 -29h-312q-28 0 -44 15.5t-16 39.5t16 40t41 16h313q145 0 201 79.5t58 272.5h-328q-136 0 -231 93t-95 249zM225 342 q0 -100 60.5 -163t143.5 -63h330v809h-326q-88 0 -148 -77t-60 -199v-307z" />
<glyph unicode="h" horiz-adv-x="1054" d="M150 57v1318q0 25 17 42t44 17q26 0 44 -17t18 -42v-333h333q136 0 231.5 -94t95.5 -249v-642q0 -25 -18.5 -41t-45.5 -16t-43 16t-16 41v639q0 103 -61 169t-143 66h-333v-874q0 -25 -17.5 -41t-44.5 -16q-28 0 -44.5 16t-16.5 41z" />
<glyph unicode="i" horiz-adv-x="409" d="M154 57v926q0 26 15.5 43t43.5 17q26 0 44 -17t18 -43v-926q0 -25 -17.5 -41t-44.5 -16t-43 16t-16 41zM154 1325v40q0 26 15.5 42.5t43.5 16.5q26 0 44 -17t18 -42v-40q0 -25 -17 -40.5t-45 -15.5t-43.5 15.5t-15.5 40.5z" />
<glyph unicode="j" horiz-adv-x="405" d="M-49 -312q0 18 12 33l107 154q77 115 77 263v844q0 26 17.5 43t44.5 17t44 -17t17 -43v-846q0 -96 -19.5 -167.5t-74.5 -150.5l-116 -168q-15 -22 -46 -22q-27 0 -45 17.5t-18 42.5zM147 1325v40q0 25 17.5 42t44.5 17t44 -17t17 -42v-40q0 -25 -17 -40.5t-44 -15.5 q-28 0 -45 15.5t-17 40.5z" />
<glyph unicode="k" horiz-adv-x="940" d="M154 59v1316q0 25 17 42t44 17t44 -17t17 -42v-755h140q19 0 35 20l298 361q18 23 48 23q25 0 44 -17.5t19 -39.5q0 -20 -17 -40l-308 -367l348 -467q10 -16 10 -34q0 -23 -19 -41.5t-43 -18.5q-31 0 -50 26l-311 428q-11 15 -16.5 22t-15 13.5t-19.5 6.5h-143v-433 q0 -28 -17 -45t-44 -17t-44 17t-17 42z" />
<glyph unicode="l" horiz-adv-x="395" d="M154 59v1316q0 25 17 42t44 17t44.5 -18t17.5 -45v-1309q0 -27 -17.5 -44.5t-44.5 -17.5t-44 17t-17 42z" />
<glyph unicode="m" horiz-adv-x="1597" d="M137 59v892q0 37 25.5 64t67.5 27h925q135 0 230 -93.5t95 -249.5v-640q0 -23 -18 -41t-44 -18q-27 0 -43 18t-16 41v640q0 101 -60.5 166.5t-143.5 65.5h-287v-869q0 -27 -17 -44.5t-44 -17.5t-43 18t-16 41v872h-491v-869q0 -27 -17 -44.5t-44 -17.5t-43 18t-16 41z " />
<glyph unicode="n" horiz-adv-x="1038" d="M137 59v892q0 37 25.5 64t67.5 27h363q136 0 231.5 -94t95.5 -249v-640q0 -23 -19 -41t-45 -18t-42.5 18t-16.5 41v640q0 103 -57 167.5t-147 64.5h-334v-869q0 -26 -17.5 -44t-43.5 -18q-27 0 -44 18t-17 41z" />
<glyph unicode="o" horiz-adv-x="1019" d="M103 349v315q0 162 98 269.5t247 107.5h125q148 0 246.5 -108t98.5 -269v-315q0 -158 -98.5 -257.5t-246.5 -99.5h-125q-148 0 -246.5 99.5t-98.5 257.5zM225 342q0 -105 62 -174t161 -69h125q99 0 161 69t62 174v332q0 108 -63 184.5t-160 76.5h-125q-97 0 -160 -76.5 t-63 -184.5v-332z" />
<glyph unicode="p" horiz-adv-x="1034" d="M154 -330v1281q0 36 27.5 63.5t65.5 27.5h355q70 0 128 -26t94.5 -67t62 -93.5t36 -103t10.5 -98.5v-312q0 -156 -95.5 -249t-231.5 -93h-330v-330q0 -25 -17.5 -41t-43.5 -16t-43.5 16t-17.5 41zM276 111h330q83 0 143.5 65t60.5 166v307q0 122 -60 199t-148 77h-326 v-814z" />
<glyph unicode="q" horiz-adv-x="1017" d="M103 342v312q0 48 10.5 98.5t35.5 103t61.5 93.5t94.5 67t128 26h355q38 0 66 -27.5t28 -63.5v-1279q0 -26 -18.5 -42.5t-43.5 -16.5q-27 0 -44 17t-17 42v328h-330q-136 0 -231 93t-95 249zM225 342q0 -100 61 -165.5t143 -65.5h330v814h-326q-88 0 -148 -77t-60 -199 v-307z" />
<glyph unicode="r" horiz-adv-x="712" d="M137 57v953q0 53 50 53t52 -53l3 -84q84 137 298 137h63q29 0 45.5 -15.5t16.5 -39.5t-16 -39.5t-42 -15.5h-67q-140 0 -210.5 -77t-70.5 -216v-603q0 -25 -17.5 -41t-44.5 -16q-28 0 -44 16t-16 41z" />
<glyph unicode="s" horiz-adv-x="935" d="M85 756q0 74 28.5 130.5t78 89.5t112 49.5t135.5 16.5h311q28 0 45 -16t17 -40q0 -25 -16.5 -40.5t-41.5 -15.5h-315q-106 0 -169 -41t-63 -129q0 -82 56 -117t192 -52l74 -11q156 -21 239 -88.5t83 -192.5q0 -84 -28 -143.5t-81.5 -93t-122 -48t-158.5 -14.5h-286 q-25 0 -41.5 15.5t-16.5 39.5t16.5 40t41.5 16h286q267 0 267 186q0 70 -56.5 115t-160.5 57l-88 10q-165 19 -251.5 82t-86.5 195z" />
<glyph unicode="t" horiz-adv-x="741" d="M48 984q0 26 17 42t43 16h109v173q0 25 17.5 41.5t44.5 16.5t44 -17t17 -41v-173h263q29 0 46.5 -16.5t17.5 -41.5t-16.5 -41t-44.5 -16h-266v-606q0 -118 42 -171.5t148 -53.5h76q27 0 44 -17.5t17 -42.5t-16.5 -40.5t-44.5 -15.5h-76q-164 0 -238.5 86t-74.5 255v606 h-109q-26 0 -43 16t-17 41z" />
<glyph unicode="u" horiz-adv-x="1021" d="M120 342v641q0 22 18 40.5t45 18.5q26 0 42.5 -18.5t16.5 -40.5v-641q0 -101 60.5 -166t143.5 -65h334v868q0 25 17 44t44 19t44.5 -18.5t17.5 -40.5v-893q0 -37 -26 -63.5t-68 -26.5h-363q-136 0 -231 93t-95 249z" />
<glyph unicode="v" horiz-adv-x="911" d="M48 988q0 32 27 45.5t57 3.5t37 -38l242 -848q10 -36 50 -36q38 0 48 36l237 846q6 20 23 33t41 12q28 -1 42 -18t14 -41q0 -11 -3 -23l-252 -851q-15 -48 -57 -78.5t-98 -30.5q-54 0 -96.5 30.5t-56.5 78.5l-253 867q-2 8 -2 12z" />
<glyph unicode="w" horiz-adv-x="1497" d="M48 988q0 24 18 39t43 15q21 0 36.5 -13t19.5 -31l206 -846q9 -37 41 -37q33 0 43 36l220 802q13 46 72 46t71 -46l222 -802q10 -36 42 -36q33 0 42 37l207 834q6 26 23 41.5t41 14.5q25 -1 40 -17t15 -42q0 -10 -3 -22l-207 -844q-13 -53 -56.5 -85t-103.5 -32 q-58 0 -100 31.5t-56 83.5l-177 646l-177 -646q-14 -51 -57.5 -83t-102.5 -32q-58 0 -100.5 32t-55.5 85l-205 858q-1 5 -1 13z" />
<glyph unicode="x" horiz-adv-x="856" d="M53 56q0 17 11 34l292 435l-287 427q-12 16 -12 36q0 21 16.5 37.5t41.5 16.5q32 0 50 -27l264 -391l260 389q19 30 53 30q24 0 41.5 -16t17.5 -38q0 -19 -15 -42l-285 -422l293 -433q13 -19 13 -38q0 -22 -17 -38t-41 -16q-34 0 -52 26l-268 399l-268 -399 q-17 -26 -50 -26q-24 0 -41 17t-17 39z" />
<glyph unicode="y" horiz-adv-x="901" d="M48 985q0 21 14.5 37.5t40.5 18.5q23 2 40.5 -10.5t23.5 -32.5l268 -868q5 -15 13 -15t13 15l274 865q7 23 25.5 36t39.5 11q27 -1 41.5 -16t14.5 -37q0 -9 -3 -20l-437 -1387q-5 -17 -21 -28.5t-38 -10.5q-26 1 -41.5 18t-15.5 38q0 6 2 14l124 396l-26 3q-57 15 -75 70 l-275 887q-2 5 -2 16z" />
<glyph unicode="z" horiz-adv-x="935" d="M85 67q0 33 20 58l592 805h-512q-26 0 -41.5 15.5t-15.5 38.5q0 26 15.5 42t41.5 16h587q35 0 57.5 -19.5t22.5 -48.5q0 -28 -20 -56l-587 -806h539q29 0 46 -15.5t17 -40.5t-16 -40.5t-43 -15.5h-624q-35 0 -57 19t-22 48z" />
<glyph unicode="{" horiz-adv-x="880" d="M96 636q0 23 17.5 40t44.5 17q92 0 154.5 66t62.5 168v499q0 38 25.5 62.5t64.5 24.5h259q29 0 46 -15.5t17 -40.5q0 -24 -16 -40.5t-43 -16.5h-228v-473q0 -103 -48.5 -179t-131.5 -111q83 -38 131.5 -115t48.5 -179v-476h224q29 0 46 -15.5t17 -39.5t-16.5 -41 t-42.5 -17h-263q-39 0 -64.5 25t-25.5 63v501q0 102 -63 168t-156 66q-24 0 -42 17.5t-18 41.5z" />
<glyph unicode="|" horiz-adv-x="313" d="M93 -88v1473q0 26 18 43.5t46 17.5q27 0 45 -18t18 -47v-1465q0 -28 -17.5 -45.5t-45.5 -17.5q-29 0 -46.5 17t-17.5 42z" />
<glyph unicode="}" horiz-adv-x="880" d="M96 -188q0 24 16.5 39.5t45.5 15.5h224v476q0 102 48.5 179t131.5 115q-83 35 -131.5 111.5t-48.5 178.5v473h-228q-26 0 -42 16.5t-16 40.5q0 25 16.5 40.5t45.5 15.5h258q40 0 65.5 -24.5t25.5 -62.5v-499q0 -102 62.5 -168t154.5 -66q28 0 45.5 -17t17.5 -40 q0 -24 -18 -41.5t-43 -17.5q-93 0 -156 -66t-63 -168v-501q0 -38 -25.5 -63t-65.5 -25h-262q-26 0 -42 17t-16 41z" />
<glyph unicode="~" horiz-adv-x="1206" d="M97 324q2 122 89.5 209.5t210.5 87.5q81 0 151.5 -41t108.5 -108q23 -41 64 -65.5t89 -24.5q71 0 123 51.5t55 128.5q4 27 20 43t41 16t43.5 -17.5t18.5 -41.5q0 -120 -89.5 -208t-211.5 -88q-81 0 -151.5 41t-109.5 107q-24 41 -65 65.5t-87 24.5q-72 0 -124.5 -53 t-52.5 -127q0 -23 -18.5 -40.5t-43.5 -17.5t-43 17.5t-18 40.5z" />
<glyph unicode="&#xa1;" horiz-adv-x="311" d="M93 -281v907q0 25 17 42t45 17q27 0 45 -17t18 -42v-907q0 -26 -18 -42.5t-45 -16.5q-28 0 -45 16.5t-17 42.5zM93 946v88q0 26 17 43.5t45 17.5q27 0 45 -17.5t18 -43.5v-88q0 -25 -18 -41.5t-45 -16.5q-28 0 -45 16t-17 42z" />
<glyph unicode="&#xa2;" horiz-adv-x="884" d="M93 432v192q0 197 93.5 303.5t280.5 113.5v112q0 21 13 34.5t35 13.5q20 0 34 -13.5t14 -32.5v-113h163q26 0 42 -16t16 -39q0 -24 -16 -39.5t-42 -15.5h-163v-822h163q26 0 42 -16t16 -39q0 -24 -16 -39.5t-42 -15.5h-163v-113q0 -19 -14.5 -32t-34.5 -13 q-22 0 -34.5 13t-12.5 36v110q-374 15 -374 431zM214 430q0 -147 64 -229t189 -90v818q-253 -13 -253 -305v-194z" />
<glyph unicode="&#xa3;" horiz-adv-x="1009" d="M95 57q0 24 17 40t43 16h121v620h-93q-28 0 -46 15.5t-18 40.5q0 24 17 40t43 16h97v213q0 90 12.5 155.5t35.5 108t60.5 67.5t82 35t105.5 10h199q29 0 46.5 -16.5t17.5 -40.5q0 -25 -17 -40.5t-43 -15.5h-203q-90 0 -131 -55t-41 -208v-213h293q29 0 46 -16t17 -40 t-16 -40t-42 -16h-298v-620h451q29 0 46 -16t17 -40q0 -25 -16 -41t-43 -16h-700q-26 0 -43 16t-17 41z" />
<glyph unicode="&#xa5;" horiz-adv-x="1128" d="M80 1372q0 25 19 43.5t45 18.5q35 0 54 -31l370 -607l362 605q20 33 56 33q26 0 45 -18.5t19 -43.5q0 -15 -8 -29l-268 -451h196q27 0 45 -17t18 -43t-18 -42t-45 -16h-266l-72 -121v-89h338q27 0 45 -17t18 -43q0 -25 -17.5 -41.5t-44.5 -16.5h-339v-385 q0 -26 -18 -43.5t-46 -17.5t-46 17.5t-18 43.5v385h-345q-27 3 -44 19t-17 41q0 23 18 40.5t46 17.5h342v89l-73 121h-273q-27 4 -43.5 19.5t-16.5 40.5q0 23 18 40.5t46 17.5h197l-270 446q-9 15 -9 34z" />
<glyph unicode="&#xa6;" horiz-adv-x="311" d="M94 -82v619q0 25 17 41.5t45 16.5t45 -16t17 -42v-617q-2 -63 -63 -63q-26 0 -43.5 17.5t-17.5 43.5zM94 839v618q0 26 17 42.5t45 16.5t45 -16.5t17 -42.5v-620q-3 -25 -20 -41.5t-43 -16.5q-25 0 -43 17t-18 43z" />
<glyph unicode="&#xa7;" horiz-adv-x="958" d="M100 551q0 159 154 214q-78 32 -116 83t-38 136q0 75 28 128.5t78.5 83t110.5 42.5t134 13h309q28 0 45 -16t17 -40q0 -23 -16.5 -39t-41.5 -16h-313q-107 0 -166.5 -34.5t-59.5 -117.5q0 -78 55.5 -114.5t186.5 -53.5l73 -10q156 -23 238.5 -90t82.5 -190 q0 -160 -120 -229q120 -69 120 -204q0 -84 -28 -143t-81.5 -92.5t-121 -48t-157.5 -14.5h-284q-25 0 -42 16.5t-17 39.5t17 38t42 15h284q127 0 194 44t67 143q0 69 -54 113t-158 57l-86 10q-165 19 -250.5 82t-85.5 194zM225 555q0 -79 58.5 -115.5t183.5 -52.5l84 -11 q35 -4 71 -15q112 41 112 167q0 71 -55 115t-156 55l-87 10q-211 2 -211 -153z" />
<glyph unicode="&#xa8;" horiz-adv-x="550" d="M61 1346v56q0 26 16 42t42 16q27 0 44 -16.5t17 -41.5v-56q0 -24 -17 -39.5t-44 -15.5t-42.5 15.5t-15.5 39.5zM373 1346v56q0 25 16 41.5t42 16.5t43 -16.5t17 -41.5v-56q0 -24 -16.5 -39.5t-43.5 -15.5t-42.5 15t-15.5 40z" />
<glyph unicode="&#xa9;" horiz-adv-x="1251" d="M88 873q0 151 69.5 279t193.5 203.5t274 75.5t274 -75.5t194 -204t70 -279.5t-70 -278t-194 -202t-274 -75q-112 0 -212.5 44t-171 119t-112 177.5t-41.5 215.5zM175 872q0 -127 58.5 -234.5t162 -171t229.5 -63.5t230 63.5t163 171t59 234.5t-59 235t-163 172.5 t-230 64.5t-230 -64.5t-162 -172.5t-58 -235zM398 871q0 60 5.5 105.5t20.5 86.5t39.5 67t64.5 41t95 15h112q18 0 30 -12t12 -30t-12 -30t-30 -12h-112q-38 0 -64.5 -11t-41.5 -28.5t-23 -49.5t-10.5 -63t-2.5 -79q0 -115 30 -170.5t112 -55.5h112q18 0 30 -12t12 -30 t-12 -29.5t-30 -11.5h-112q-67 0 -112 21t-69 63.5t-34 96t-10 128.5z" />
<glyph unicode="&#xaa;" horiz-adv-x="686" d="M103 891q0 77 56 132t134 55h199v75q0 46 -24 78t-65 32h-219q-21 0 -33 11t-12 30q0 20 12 32.5t33 12.5h219q78 0 128.5 -54.5t50.5 -137.5v-379q0 -32 -21.5 -54.5t-53.5 -22.5h-214q-78 0 -134 55.5t-56 134.5zM193 891q0 -40 30 -71t70 -31h199v199h-199 q-40 0 -70 -29t-30 -68z" />
<glyph unicode="&#xab;" horiz-adv-x="1032" d="M96 553q0 49 48 87l232 178q18 13 37 13q23 0 41 -16t18 -39q0 -28 -23 -45l-198 -158q-12 -11 -12 -21t12 -21l194 -161q25 -18 25 -48q0 -23 -17.5 -39.5t-39.5 -16.5q-20 0 -38 15l-240 199q-39 32 -39 73zM553 553q0 49 42 82l235 182q16 13 40 13t41.5 -15t17.5 -39 q0 -28 -24 -46l-196 -156q-13 -11 -13 -21q0 -11 12 -21l194 -163q27 -21 27 -47q0 -22 -18 -38t-40 -16q-24 0 -42 15l-234 196q-42 34 -42 74z" />
<glyph unicode="&#xac;" horiz-adv-x="1705" />
<glyph unicode="&#xad;" horiz-adv-x="870" d="M96 536q0 23 17.5 40t44.5 17h557q27 0 43.5 -16.5t16.5 -42.5q0 -27 -16 -43t-44 -16h-556q-63 2 -63 61z" />
<glyph unicode="&#xae;" horiz-adv-x="1251" d="M89 872q0 152 69.5 280t193 203.5t273.5 75.5t274 -75.5t193.5 -203.5t69.5 -280t-69.5 -279.5t-193 -202t-274.5 -74.5q-150 0 -273.5 74.5t-193 202t-69.5 279.5zM177 873q0 -196 128.5 -331.5t319.5 -135.5t320 135.5t129 331.5t-129 332t-320 136t-319.5 -136 t-128.5 -332zM419 596v530q0 28 19 46.5t48 18.5h141q218 0 218 -182q0 -147 -123 -179l107 -217q5 -10 5 -19q0 -15 -11 -25.5t-27 -10.5q-25 0 -36 21l-125 242h-137v-225q0 -16 -11.5 -27.5t-27.5 -11.5q-17 0 -28.5 11.5t-11.5 27.5zM498 897h158q111 0 111 112 q0 106 -136 106h-133v-218z" />
<glyph unicode="&#xaf;" horiz-adv-x="647" d="M61 1448q0 28 16.5 44t41.5 16h415q25 0 40 -16t15 -44q0 -26 -15 -42.5t-40 -16.5h-415q-25 0 -41.5 16.5t-16.5 42.5z" />
<glyph unicode="&#xb0;" horiz-adv-x="778" d="M92 1131q0 131 82.5 212.5t214.5 81.5q133 0 215.5 -81.5t82.5 -212.5t-82.5 -211.5t-215.5 -80.5q-132 0 -214.5 81t-82.5 211zM210 1131q0 -83 49.5 -134.5t129.5 -51.5q82 0 133.5 51t51.5 135t-51.5 135.5t-133.5 51.5q-80 0 -129.5 -52t-49.5 -135z" />
<glyph unicode="&#xb1;" horiz-adv-x="1083" d="M96 174q0 23 18 40.5t45 17.5h769q28 0 44.5 -17t16.5 -43t-16.5 -42t-44.5 -16h-747q-85 2 -85 60zM96 728q0 24 18 41.5t45 17.5h314v214q2 24 20.5 40t45.5 16q26 0 42.5 -17t16.5 -41v-212h330q27 0 44 -17t17 -44q0 -25 -16.5 -41.5t-44.5 -16.5h-330v-221 q0 -24 -18 -41.5t-45 -17.5q-25 0 -43.5 17.5t-18.5 43.5v219h-318q-26 0 -42.5 17.5t-16.5 42.5z" />
<glyph unicode="&#xb2;" horiz-adv-x="681" d="M106 648q0 22 16 37l245 233q29 28 45 46t31.5 50t15.5 65v29q0 49 -37.5 76t-92.5 27h-170q-17 0 -31 14t-14 31t14 31.5t31 14.5h170q97 0 157.5 -51.5t60.5 -142.5v-29q0 -73 -28 -121t-86 -105l-177 -167h276q17 0 31.5 -14.5t14.5 -30.5q0 -18 -15 -32t-31 -14h-373 q-21 0 -37 16t-16 37z" />
<glyph unicode="&#xb3;" horiz-adv-x="655" d="M105 645q0 14 14 28.5t33 14.5h207q42 0 71 30.5t29 78.5q0 50 -28.5 84t-71.5 34h-126q-22 0 -34.5 13t-12.5 34q0 17 13 30t32 13h134q40 0 67 28t27 71q0 46 -29 77.5t-71 31.5h-207q-20 0 -33.5 13.5t-13.5 34.5q0 14 14 28t33 14h207q80 0 135 -57.5t55 -141.5 q0 -92 -76 -144q33 -25 54.5 -69t21.5 -94q0 -87 -55 -143t-135 -56h-207q-20 0 -33.5 13t-13.5 34z" />
<glyph unicode="&#xb4;" horiz-adv-x="548" d="M61 1260q0 34 36 51l309 147q14 6 27 6q22 0 39.5 -16.5t17.5 -40.5q0 -34 -45 -54l-296 -138q-15 -7 -33 -7q-22 0 -38.5 14t-16.5 38z" />
<glyph unicode="&#xb6;" horiz-adv-x="1220" d="M99 1039q0 50 10.5 102t35.5 105.5t62 94.5t94.5 67t128.5 26h626q31 0 49 -17.5t18 -43.5q0 -25 -17.5 -42.5t-45.5 -17.5h-112v-1471q0 -29 -17.5 -47t-45.5 -18t-45.5 17.5t-17.5 43.5v1475h-174v-1475q0 -26 -18 -43.5t-44 -17.5q-28 0 -45.5 17.5t-17.5 43.5v855 h-105q-135 0 -227 94.5t-92 251.5z" />
<glyph unicode="&#xb7;" horiz-adv-x="319" d="M94 596v80q0 26 18 44.5t48 18.5q28 0 48 -18.5t20 -44.5v-76q0 -29 -20 -48t-48 -19q-29 0 -47.5 18t-18.5 45z" />
<glyph unicode="&#xb8;" horiz-adv-x="391" d="M61 -330q0 17 10 28t26 11h67q40 0 52.5 18.5t12.5 59.5q0 38 -12 55t-52 17q-57 3 -57 65v112h84v-110q79 0 109.5 -31t30.5 -108q0 -83 -39.5 -118.5t-125.5 -35.5h-65q-19 0 -30 10.5t-11 26.5z" />
<glyph unicode="&#xb9;" horiz-adv-x="497" d="M116 1153q0 20 19 34l155 109q14 10 39 10q28 0 44.5 -16.5t16.5 -44.5v-595q0 -21 -13 -34t-34 -13q-18 0 -31.5 12.5t-14.5 32.5v542l-105 -68q-18 -12 -36 -12q-16 0 -28 13t-12 30z" />
<glyph unicode="&#xba;" horiz-adv-x="755" d="M106 1029q0 178 66.5 249t208.5 71t206.5 -71t64.5 -249q0 -181 -64.5 -255t-206.5 -74q-141 0 -208 74.5t-67 254.5zM203 1029q0 -139 40.5 -188.5t137.5 -49.5q95 0 134.5 49.5t39.5 188.5q0 136 -39 182t-135 46q-49 0 -80 -9t-54.5 -34t-33.5 -70t-10 -115z" />
<glyph unicode="&#xbb;" horiz-adv-x="1032" d="M103 776q0 24 18 39t42 15q23 0 39 -13l235 -182q42 -33 42 -82q0 -41 -41 -74l-234 -196q-18 -15 -42 -15q-22 0 -40 16t-18 38q0 27 26 47l194 163q12 10 12 21t-12 21l-197 156q-24 18 -24 46zM561 776q0 23 18 39t41 16q19 0 37 -13l231 -178q49 -38 49 -87 q0 -41 -39 -73l-240 -199q-18 -15 -39 -15t-39 17t-18 39q0 29 26 48l194 161q12 11 12 21t-12 21l-198 158q-23 17 -23 45z" />
<glyph unicode="&#xbc;" horiz-adv-x="1337" d="M94 1153q0 19 20 34l154 109q14 10 39 10q28 0 44.5 -16.5t16.5 -44.5v-595q0 -22 -13 -34.5t-33 -12.5q-19 0 -32.5 12.5t-14.5 32.5v542l-105 -69q-16 -11 -35 -11q-16 0 -28.5 13t-12.5 30zM299 45q0 12 4 20l546 1222q14 31 46 31q22 0 36 -12.5t14 -31.5 q0 -10 -5 -23l-547 -1229q-11 -25 -38 -25q-23 0 -39.5 14.5t-16.5 33.5zM732 222q0 16 6 31l165 409q13 35 45 35q20 0 32.5 -13t12.5 -30q0 -12 -4 -21l-159 -392q-1 -3 -1 -7q0 -10 11 -10h206v130q0 20 13 33t31 13q20 0 34 -13.5t14 -30.5v-132h69q20 0 33 -13t13 -32 t-12.5 -32t-33.5 -13h-69v-89q0 -21 -13.5 -34t-34.5 -13q-17 0 -30.5 13.5t-13.5 31.5v90h-224q-43 0 -66.5 27t-23.5 62z" />
<glyph unicode="&#xbd;" horiz-adv-x="1421" d="M97 1153q0 20 19 34l155 109q14 10 39 10q28 0 44.5 -16.5t16.5 -44.5v-595q0 -21 -13 -34t-34 -13q-18 0 -31.5 12.5t-14.5 32.5v542l-105 -69q-16 -11 -36 -11q-16 0 -28 13t-12 30zM302 45q0 12 4 20l546 1222q14 31 46 31q22 0 36 -12.5t14 -31.5q0 -10 -5 -23 l-547 -1229q-11 -25 -39 -25q-23 0 -39 14.5t-16 33.5zM862 53q0 20 17 36l245 234q29 27 45 46t31 50.5t15 64.5v28q0 49 -37.5 76.5t-91.5 27.5h-170q-17 0 -31.5 13.5t-14.5 30.5t14.5 31.5t31.5 14.5h170q96 0 156.5 -51.5t60.5 -142.5v-28q0 -73 -27.5 -121.5 t-85.5 -104.5l-178 -168h276q17 0 31.5 -14.5t14.5 -30.5q0 -17 -15 -31t-31 -14h-372q-21 0 -37.5 16t-16.5 37z" />
<glyph unicode="&#xbe;" horiz-adv-x="1458" d="M92 649q0 14 14 28.5t33 14.5h207q42 0 71 30.5t29 78.5q0 50 -28.5 84t-71.5 34h-126q-22 0 -34.5 13t-12.5 34q0 17 13 30t32 13h134q40 0 67 28t27 71q0 46 -29 77.5t-71 31.5h-207q-20 0 -33.5 13.5t-13.5 34.5q0 14 14 28t33 14h207q80 0 135 -57.5t55 -141.5 q0 -92 -76 -144q33 -25 54.5 -69t21.5 -94q0 -87 -55 -143t-135 -56h-207q-20 0 -33.5 13t-13.5 34zM421 45q0 12 4 20l546 1222q14 31 46 31q22 0 36 -12.5t14 -31.5q0 -10 -5 -23l-547 -1229q-11 -25 -39 -25q-23 0 -39 14.5t-16 33.5zM854 222q0 16 6 31l164 409 q13 35 46 35q20 0 32.5 -13t12.5 -30q0 -12 -4 -21l-159 -392q-2 -6 -2 -7q0 -10 12 -10h205v130q0 20 13.5 33t31.5 13q20 0 34 -13.5t14 -30.5v-132h69q20 0 33 -13t13 -32t-12.5 -32t-33.5 -13h-69v-89q0 -21 -13.5 -34t-34.5 -13q-17 0 -30.5 13.5t-13.5 31.5v91h-225 q-43 0 -66 26.5t-23 61.5z" />
<glyph unicode="&#xbf;" horiz-adv-x="931" d="M96 6q0 90 38.5 162t119.5 144l133 119q79 73 79 145v44q0 28 17.5 45t45.5 17q27 0 44.5 -16.5t17.5 -41.5v-49q0 -41 -8 -73t-27.5 -60.5t-37.5 -47.5t-52 -51l-127 -116q-113 -104 -113 -221q0 -115 68.5 -175t203.5 -60h274q31 0 48 -17t17 -43q0 -23 -16.5 -40 t-44.5 -17h-278q-190 0 -296 90.5t-106 261.5zM462 948v80q0 29 19.5 47.5t45.5 18.5q29 0 48.5 -18.5t19.5 -43.5v-84q0 -25 -19.5 -43.5t-48.5 -18.5q-26 0 -45.5 18.5t-19.5 43.5z" />
<glyph unicode="&#xc0;" d="M75 59q0 9 3 19l372 1233q17 54 64 88.5t107 34.5t106 -33.5t63 -88.5l374 -1241q2 -10 2 -14q0 -21 -16.5 -38t-43.5 -18q-22 -2 -40.5 11t-24.5 33l-119 379h-604l-117 -377q-6 -21 -24.5 -34.5t-41.5 -11.5q-27 1 -43.5 17.5t-16.5 40.5zM354 543h533l-222 736 q-11 36 -43 36q-34 0 -44 -36zM407 1798q0 24 17 40.5t39 16.5q13 0 27 -6l309 -147q35 -18 35 -51q0 -24 -16 -38t-37 -14q-16 0 -34 8l-304 141q-36 16 -36 50z" />
<glyph unicode="&#xc1;" d="M75 59q0 9 3 19l372 1234q17 54 64 88t107 34t106 -33.5t63 -88.5l374 -1241q2 -10 2 -14q0 -21 -16.5 -38t-43.5 -18q-22 -2 -40.5 11t-24.5 33l-119 379h-604l-117 -377q-6 -21 -24.5 -34.5t-41.5 -11.5q-27 1 -43.5 17.5t-16.5 40.5zM354 543h533l-222 736 q-11 36 -43 36q-34 0 -44 -36zM407 1651q0 35 35 51l309 147q13 6 27 6q22 0 39.5 -16.5t17.5 -40.5q0 -34 -45 -54l-296 -137q-18 -8 -33 -8q-21 0 -37.5 14.5t-16.5 37.5z" />
<glyph unicode="&#xc2;" d="M75 59q0 9 3 19l372 1234q17 54 64 88t107 34t106 -33.5t63 -88.5l374 -1241q2 -10 2 -14q0 -21 -16.5 -38t-43.5 -18q-22 -2 -40.5 11t-24.5 33l-119 379h-603l-118 -377q-6 -21 -24.5 -34.5t-41.5 -11.5q-27 1 -43.5 17.5t-16.5 40.5zM354 543h533l-222 736 q-11 36 -43 36t-43 -36zM357 1615q0 19 11 31l168 187q31 40 85 40q43 0 74 -37l174 -186q15 -18 15 -37q0 -20 -17.5 -35t-38.5 -15q-26 0 -45 21l-141 150q-10 11 -21 11q-12 0 -22 -11l-143 -151q-18 -20 -45 -20q-22 0 -38 15.5t-16 36.5z" />
<glyph unicode="&#xc3;" d="M75 59q0 9 3 19l372 1234q17 54 64 88t107 34t106 -33.5t63 -88.5l374 -1241q2 -10 2 -14q0 -21 -16.5 -38t-43.5 -18q-22 -2 -40.5 11t-24.5 33l-119 379h-604l-117 -377q-6 -21 -24.5 -34.5t-41.5 -11.5q-27 1 -43.5 17.5t-16.5 40.5zM298 1678q0 24 22 44 q98 85 178 88q34 1 63.5 -8t44 -18.5t37.5 -28.5q25 -21 36 -29t34.5 -17.5t47.5 -7.5q31 2 94 58q13 13 32 13q23 0 39.5 -15t16.5 -38q0 -22 -14 -37q-32 -32 -80.5 -62t-85.5 -33q-26 -2 -47.5 2t-44.5 17.5t-31 19t-34 26.5q-58 48 -96 48q-51 0 -122 -61 q-16 -13 -34 -13q-22 0 -39 16t-17 36zM354 543h533l-222 736q-11 36 -43 36q-34 0 -44 -36z" />
<glyph unicode="&#xc4;" d="M75 59q0 9 3 19l372 1234q17 54 64 88t107 34t106 -33.5t63 -88.5l374 -1241q2 -10 2 -14q0 -21 -16.5 -38t-43.5 -18q-22 -2 -40.5 11t-24.5 33l-119 379h-604l-117 -377q-6 -21 -24.5 -34.5t-41.5 -11.5q-27 1 -43.5 17.5t-16.5 40.5zM354 543h533l-222 736 q-11 36 -43 36q-34 0 -44 -36zM406 1738v56q0 26 16 41.5t42 15.5q27 0 43.5 -16t16.5 -41v-56q0 -24 -16.5 -40t-43.5 -16q-26 0 -42 16t-16 40zM718 1738v56q0 25 15.5 41t42.5 16q26 0 42.5 -16t16.5 -41v-56q0 -24 -16 -40t-43 -16t-42.5 15.5t-15.5 40.5z" />
<glyph unicode="&#xc5;" d="M75 59q0 9 3 19l372 1234q17 54 64 88t107 34t106 -33.5t63 -88.5l374 -1241q2 -10 2 -14q0 -21 -16.5 -38t-43.5 -18q-22 -2 -40.5 11t-24.5 33l-119 379h-603l-118 -377q-6 -21 -24.5 -34.5t-41.5 -11.5q-27 1 -43.5 17.5t-16.5 40.5zM354 543h533l-222 736 q-11 36 -43 36t-43 -36zM413 1688q0 82 61 143t146 61q84 0 146 -61t62 -143q0 -83 -61.5 -143.5t-146.5 -60.5t-146 60t-61 144zM515 1688q0 -46 31 -77.5t75 -31.5t75 31.5t31 77.5q0 44 -31.5 77t-74.5 33q-44 0 -75 -32.5t-31 -77.5z" />
<glyph unicode="&#xc6;" horiz-adv-x="1587" d="M75 59q0 9 3 19l372 1234q17 54 64 88t107 34q31 0 61 -11q22 11 47 11h697q32 0 50 -17t18 -44q0 -26 -17.5 -43t-46.5 -17h-673v-508h551q30 0 49 -17t19 -43q0 -27 -18.5 -44t-45.5 -17h-555v-563h669q31 0 49.5 -17t18.5 -43t-17.5 -43.5t-46.5 -17.5h-701 q-43 0 -71.5 27.5t-28.5 68.5v328h-311l-117 -377q-6 -21 -24.5 -34.5t-41.5 -11.5q-27 1 -43.5 17.5t-16.5 40.5zM354 543h275v766q-5 5 -11 5q-27 0 -39 -36z" />
<glyph unicode="&#xc7;" horiz-adv-x="1132" d="M140 485v451q0 498 487 498h349q25 0 43.5 -18t18.5 -41t-18.5 -41t-43.5 -18h-349q-358 0 -358 -380v-451q0 -164 94.5 -266t263.5 -102h345q28 0 47 -17.5t19 -40.5t-18.5 -41t-43.5 -18h-349q-37 0 -65 4v-82q79 0 109.5 -30.5t30.5 -106.5q0 -84 -39.5 -119 t-125.5 -35h-65q-41 0 -41 37q0 15 10.5 26t25.5 11h67q41 0 53 18.5t12 59.5q0 38 -12 55t-52 17q-57 3 -57 65v98q-162 40 -250 163.5t-88 303.5z" />
<glyph unicode="&#xc8;" horiz-adv-x="1150" d="M191 96v1242q0 41 28.5 68.5t71.5 27.5h697q32 0 50 -17t18 -44q0 -26 -17.5 -43t-46.5 -17h-673v-508h551q30 0 49 -17t19 -43q0 -27 -18.5 -44t-45.5 -17h-555v-563h669q31 0 49.5 -17t18.5 -43t-17.5 -43.5t-46.5 -17.5h-701q-43 0 -71.5 27.5t-28.5 68.5zM387 1806 q0 24 17 40.5t39 16.5q13 0 27 -6l309 -147q36 -18 36 -51q0 -23 -16.5 -37.5t-37.5 -14.5q-16 0 -34 8l-304 141q-36 16 -36 50z" />
<glyph unicode="&#xc9;" horiz-adv-x="1150" d="M191 96v1242q0 41 28.5 68.5t71.5 27.5h697q32 0 50 -17t18 -44q0 -26 -17.5 -43t-46.5 -17h-673v-507h551q30 0 49 -17.5t19 -43.5q0 -27 -18.5 -44t-45.5 -17h-555v-563h669q31 0 49.5 -17t18.5 -43t-17.5 -43.5t-46.5 -17.5h-701q-43 0 -71.5 27.5t-28.5 68.5z M387 1659q0 35 36 51l308 147q13 6 27 6q22 0 39.5 -16.5t17.5 -40.5q0 -34 -44 -54l-297 -137q-18 -8 -33 -8q-21 0 -37.5 14.5t-16.5 37.5z" />
<glyph unicode="&#xca;" horiz-adv-x="1150" d="M191 96v1242q0 41 28.5 68.5t71.5 27.5h697q32 0 50 -17t18 -44q0 -26 -17.5 -43t-46.5 -17h-673v-508h551q30 0 49 -17t19 -43q0 -27 -18.5 -44t-45.5 -17h-555v-563h669q31 0 49.5 -17t18.5 -43t-17.5 -43.5t-46.5 -17.5h-701q-43 0 -71.5 27.5t-28.5 68.5zM337 1623 q0 17 12 31l168 188q30 39 84 39q43 0 74 -37l174 -186q15 -18 15 -37q0 -20 -17 -35t-38 -15q-27 0 -46 21l-140 150q-10 11 -22 11t-22 -11l-142 -151q-18 -20 -45 -20q-23 0 -39 15t-16 37z" />
<glyph unicode="&#xcb;" horiz-adv-x="1150" d="M191 96v1242q0 41 28.5 68.5t71.5 27.5h697q32 0 50 -17t18 -44q0 -26 -17.5 -43t-46.5 -17h-673v-508h551q30 0 49 -17t19 -43q0 -27 -18.5 -44t-45.5 -17h-555v-563h669q31 0 49.5 -17t18.5 -43t-17.5 -43.5t-46.5 -17.5h-701q-43 0 -71.5 27.5t-28.5 68.5zM386 1746 v56q0 26 16 41.5t42 15.5q27 0 43.5 -16t16.5 -41v-56q0 -24 -16.5 -40t-43.5 -16q-26 0 -42 16t-16 40zM698 1746v56q0 25 15.5 41t42.5 16q26 0 43 -16t17 -41v-56q0 -24 -16.5 -40t-43.5 -16t-42.5 15.5t-15.5 40.5z" />
<glyph unicode="&#xcc;" horiz-adv-x="507" d="M41 1806q0 24 17.5 40.5t39.5 16.5q14 0 27 -6l308 -147q36 -18 36 -51q0 -23 -16.5 -37.5t-37.5 -14.5q-15 0 -33 8l-304 141q-37 17 -37 50zM191 61v1312q0 26 18 43.5t46 17.5t46 -18.5t18 -46.5v-1304q0 -28 -18 -46.5t-46 -18.5t-46 17.5t-18 43.5z" />
<glyph unicode="&#xcd;" horiz-adv-x="507" d="M41 1659q0 35 36 51l309 147q14 6 26 6q22 0 39.5 -16.5t17.5 -40.5q0 -34 -44 -54l-296 -137q-18 -8 -33 -8q-21 0 -38 14.5t-17 37.5zM191 61v1312q0 26 18 43.5t46 17.5t46 -18.5t18 -46.5v-1304q0 -28 -18 -46.5t-46 -18.5t-46 17.5t-18 43.5z" />
<glyph unicode="&#xce;" horiz-adv-x="507" d="M-9 1622q0 18 12 32l168 188q30 39 85 39q43 0 74 -37l173 -186q15 -18 15 -37q0 -20 -17 -35t-38 -15q-25 0 -45 21l-141 150q-10 11 -22 11q-11 0 -21 -11l-143 -151q-18 -20 -45 -20q-22 0 -38.5 15.5t-16.5 35.5zM191 61v1312q0 26 18 43.5t46 17.5t46 -18.5 t18 -46.5v-1304q0 -28 -18 -46.5t-46 -18.5t-46 17.5t-18 43.5z" />
<glyph unicode="&#xcf;" horiz-adv-x="507" d="M41 1746v56q0 26 16 41.5t42 15.5q27 0 43.5 -16t16.5 -41v-56q0 -24 -16.5 -40t-43.5 -16t-42.5 16t-15.5 40zM191 61v1312q0 26 18 43.5t46 17.5t46 -18.5t18 -46.5v-1304q0 -28 -18 -46.5t-46 -18.5t-46 17.5t-18 43.5zM352 1746v56q0 25 15.5 41t42.5 16q26 0 43 -16 t17 -41v-56q0 -24 -16.5 -40t-43.5 -16t-42.5 15.5t-15.5 40.5z" />
<glyph unicode="&#xd0;" horiz-adv-x="1333" d="M44 700q0 23 18 40t45 17h109v581q0 41 28 68.5t71 27.5h396q486 0 486 -498v-451q0 -219 -128.5 -352t-357.5 -133h-396q-43 0 -71 27.5t-28 68.5v543h-109q-25 1 -44 18t-19 43zM343 117h368q169 0 263 102t94 266v451q0 380 -357 380h-368v-559h321q27 0 43.5 -16.5 t16.5 -42.5q0 -27 -16 -43t-44 -16h-321v-522z" />
<glyph unicode="&#xd1;" horiz-adv-x="1384" d="M171 61v1215q0 66 46 112t115 46q47 0 87 -25.5t59 -66.5l544 -1191q16 -36 40 -32q26 3 26 43v1211q0 26 18 43.5t46 17.5t46 -17.5t18 -43.5v-1215q0 -66 -46 -112t-115 -46q-47 0 -87 25.5t-59 66.5l-543 1191q-9 20 -25 28.5t-29 -1.5t-13 -38v-1211q0 -26 -18 -43.5 t-46 -17.5q-27 0 -45.5 17.5t-18.5 43.5zM371 1678q0 24 22 44q98 85 178 88q34 1 63.5 -8t44 -18.5t37.5 -28.5q25 -21 36 -29t34.5 -17.5t47.5 -7.5q31 2 94 58q13 13 32 13q23 0 39.5 -15t16.5 -38q0 -22 -14 -37q-32 -32 -80.5 -62t-85.5 -33q-26 -2 -47.5 2t-44.5 17.5 t-31 19t-34 26.5q-58 48 -96 48q-51 0 -122 -61q-16 -13 -34 -13q-22 0 -39 16t-17 36z" />
<glyph unicode="&#xd2;" horiz-adv-x="1343" d="M140 485v451q0 498 487 498h93q487 0 487 -498v-451q0 -219 -129 -352t-358 -133h-93q-228 0 -357.5 133t-129.5 352zM271 485q0 -164 94 -266t262 -102h93q169 0 263 102t94 266v451q0 380 -357 380h-93q-356 0 -356 -380v-451zM458 1806q0 24 17 40t40 16q13 0 27 -6 l309 -147q35 -17 35 -51q0 -23 -16.5 -37.5t-36.5 -14.5q-16 0 -34 8l-304 141q-37 17 -37 51z" />
<glyph unicode="&#xd3;" horiz-adv-x="1343" d="M140 485v451q0 498 487 498h93q487 0 487 -498v-451q0 -219 -129 -352t-358 -133h-93q-228 0 -357.5 133t-129.5 352zM271 485q0 -164 94 -266t262 -102h93q169 0 263 102t94 266v451q0 380 -357 380h-93q-356 0 -356 -380v-451zM458 1659q0 33 36 50l309 147q13 6 27 6 q23 0 40 -16.5t17 -40.5q0 -34 -45 -54l-296 -137q-18 -8 -33 -8q-22 0 -38.5 14.5t-16.5 38.5z" />
<glyph unicode="&#xd4;" horiz-adv-x="1343" d="M140 485v451q0 498 487 498h93q487 0 487 -498v-451q0 -219 -129 -352t-358 -133h-93q-228 0 -357.5 133t-129.5 352zM271 485q0 -164 94 -266t262 -102h93q169 0 263 102t94 266v451q0 380 -357 380h-93q-356 0 -356 -380v-451zM409 1622q0 19 11 31l168 188 q31 40 85 40q43 0 74 -37l173 -186q16 -19 16 -38q0 -20 -17.5 -35t-38.5 -15q-25 0 -45 22l-141 150q-9 10 -21 10q-13 0 -22 -10l-143 -152q-18 -19 -45 -19q-23 0 -38.5 15t-15.5 36z" />
<glyph unicode="&#xd5;" horiz-adv-x="1343" d="M140 485v451q0 498 487 498h93q487 0 487 -498v-451q0 -219 -129 -352t-358 -133h-93q-228 0 -357.5 133t-129.5 352zM271 485q0 -164 94 -266t262 -102h93q169 0 263 102t94 266v451q0 380 -357 380h-93q-356 0 -356 -380v-451zM350 1686q0 24 22 44q98 85 178 88 q34 1 63.5 -8t44 -18.5t37.5 -28.5q48 -39 72 -48q21 -8 45 -6q33 2 95 58q13 13 32 13q24 0 40 -15.5t16 -38.5q0 -22 -14 -37q-32 -31 -80.5 -61t-85.5 -33q-26 -2 -47.5 2t-44.5 17.5t-31 19t-34 26.5q-58 48 -96 48q-50 0 -122 -62q-16 -13 -34 -13q-22 0 -39 16t-17 37 z" />
<glyph unicode="&#xd6;" horiz-adv-x="1343" d="M140 485v451q0 498 487 498h93q487 0 487 -498v-451q0 -219 -129 -352t-358 -133h-93q-228 0 -357.5 133t-129.5 352zM271 485q0 -164 94 -266t262 -102h93q169 0 263 102t94 266v451q0 380 -357 380h-93q-356 0 -356 -380v-451zM458 1745v56q0 26 16 41.5t42 15.5 q27 0 43.5 -16t16.5 -41v-56q0 -24 -16.5 -40t-43.5 -16q-26 0 -42 15.5t-16 40.5zM769 1745v56q0 25 16 41t43 16q26 0 42.5 -16t16.5 -41v-56q0 -24 -16 -40t-43 -16t-43 15.5t-16 40.5z" />
<glyph unicode="&#xd7;" horiz-adv-x="937" d="M103 816q0 25 18.5 43.5t42.5 18.5q27 0 46 -19l259 -259l259 261q17 17 44 17q24 0 43.5 -17.5t19.5 -41.5q0 -25 -22 -47l-259 -258l263 -263q16 -16 16 -40q0 -25 -18.5 -42.5t-41.5 -17.5q-27 0 -49 22l-255 254l-258 -256q-20 -17 -46 -17q-24 0 -42 17t-18 41 q0 25 20 45l259 257l-261 259q-20 19 -20 43z" />
<glyph unicode="&#xd8;" horiz-adv-x="1267" d="M103 485v451q0 498 487 498h93q124 0 216 -32l65 146q16 34 53 34q24 0 39 -15t15 -35q0 -17 -6 -29l-67 -151q172 -120 172 -416v-451q0 -219 -129 -352t-358 -133h-93q-102 0 -183 27l-69 -156q-15 -31 -51 -31q-24 0 -40 16t-16 35q0 9 5 21l71 161 q-99 61 -151.5 167.5t-52.5 244.5zM234 485q0 -194 125 -295l490 1099q-68 27 -166 27h-93q-356 0 -356 -380v-451zM457 137q62 -20 133 -20h93q169 0 263 102t94 266v451q0 199 -97 293z" />
<glyph unicode="&#xd9;" horiz-adv-x="1351" d="M189 423v951q0 23 19 41t45 18q25 0 43.5 -18t18.5 -41v-951q0 -140 76.5 -224t180.5 -84h248q111 0 175 84t64 224v947q0 27 18.5 45t43.5 18t44.5 -18t19.5 -41v-951q0 -192 -98.5 -309.5t-267.5 -117.5h-248q-161 0 -271.5 113.5t-110.5 313.5zM463 1798q0 24 17 40.5 t39 16.5q13 0 27 -6l309 -147q35 -18 35 -51q0 -24 -16 -38t-37 -14q-16 0 -34 8l-304 141q-36 16 -36 50z" />
<glyph unicode="&#xda;" horiz-adv-x="1351" d="M189 423v952q0 23 19 40.5t45 17.5q25 0 43.5 -17.5t18.5 -40.5v-952q0 -140 76.5 -224t180.5 -84h248q111 0 175 84t64 224v947q0 27 18.5 45t43.5 18t44.5 -18t19.5 -41v-951q0 -192 -98.5 -309.5t-267.5 -117.5h-248q-161 0 -271.5 113.5t-110.5 313.5zM463 1651 q0 35 35 51l309 147q13 6 27 6q22 0 39.5 -16.5t17.5 -40.5q0 -34 -45 -54l-296 -137q-18 -8 -33 -8q-21 0 -37.5 14.5t-16.5 37.5z" />
<glyph unicode="&#xdb;" horiz-adv-x="1351" d="M189 423v951q0 23 19 41t45 18q25 0 43.5 -18t18.5 -41v-951q0 -140 76.5 -224t180.5 -84h248q111 0 175 84t64 224v947q0 27 18.5 45t43.5 18t45 -18t20 -41v-951q0 -192 -99 -309.5t-268 -117.5h-248q-161 0 -271.5 113.5t-110.5 313.5zM413 1615q0 19 11 31l168 187 q31 40 85 40q43 0 74 -37l174 -186q15 -18 15 -37q0 -20 -17.5 -35t-38.5 -15q-26 0 -45 21l-140 150q-10 11 -22 11t-22 -11l-143 -151q-18 -20 -45 -20q-22 0 -38 15.5t-16 36.5z" />
<glyph unicode="&#xdc;" horiz-adv-x="1351" d="M189 423v952q0 23 19 40.5t45 17.5q25 0 43.5 -17.5t18.5 -40.5v-952q0 -140 76.5 -224t180.5 -84h248q111 0 175 84t64 224v947q0 27 18.5 45t43.5 18t44.5 -18t19.5 -41v-951q0 -192 -98.5 -309.5t-267.5 -117.5h-248q-161 0 -271.5 113.5t-110.5 313.5zM462 1738v56 q0 26 16 41.5t42 15.5q27 0 43.5 -16t16.5 -41v-56q0 -24 -16.5 -40t-43.5 -16q-26 0 -42 16t-16 40zM774 1738v56q0 25 15.5 41t42.5 16q26 0 42.5 -16t16.5 -41v-56q0 -24 -16 -40t-43 -16t-42.5 15.5t-15.5 40.5z" />
<glyph unicode="&#xdd;" horiz-adv-x="1120" d="M75 1372q0 25 18.5 42.5t50.5 17.5t50 -29l370 -607l362 606q17 30 53 30q31 0 49 -18t18 -42q0 -16 -8 -29l-410 -690v-592q0 -26 -18 -43.5t-46 -17.5t-46 17.5t-18 43.5v592l-415 686q-10 17 -10 33zM347 1651q0 35 36 51l309 147q14 6 26 6q22 0 39.5 -16.5 t17.5 -40.5q0 -34 -44 -54l-296 -137q-18 -8 -33 -8q-21 0 -38 14.5t-17 37.5z" />
<glyph unicode="&#xde;" horiz-adv-x="1155" d="M97 61v1312q0 26 17.5 43.5t46.5 17.5q28 0 46 -17.5t18 -43.5v-181h426q194 0 301.5 -90t107.5 -259v-191q0 -175 -103.5 -282.5t-305.5 -107.5h-426v-201q0 -26 -18 -43.5t-46 -17.5q-29 0 -46.5 17.5t-17.5 43.5zM225 380h426q139 0 210.5 75t71.5 197v189 q0 114 -72.5 174t-209.5 60h-426v-695z" />
<glyph unicode="&#xdf;" horiz-adv-x="1175" d="M97 60v881q0 493 483 493h69q155 0 266 -110t111 -263q0 -98 -49 -178.5t-132 -126.5q105 -42 170.5 -138t65.5 -214q0 -172 -116.5 -288t-283.5 -116h-254q-30 0 -47.5 17t-17.5 41q0 22 18 40t43 18h258q114 0 195.5 82.5t81.5 205.5q0 116 -82 200.5t-195 84.5h-34 q-26 0 -43.5 18t-17.5 41t17.5 40t43.5 17q104 0 180 75.5t76 180.5t-75 180.5t-179 75.5h-69q-355 0 -355 -376v-878q0 -28 -19 -45.5t-46 -17.5q-28 0 -45.5 17t-17.5 43z" />
<glyph unicode="&#xe0;" horiz-adv-x="966" d="M79 295q0 122 88 210t213 88h345v143q0 85 -46.5 140t-121.5 55h-357q-29 0 -46 15.5t-17 40.5q0 23 16 39t43 16h368q123 0 203.5 -85.5t80.5 -213.5v-657q0 -37 -25.5 -61.5t-63.5 -24.5h-379q-125 0 -213 86.5t-88 208.5zM199 295q0 -74 54 -127t127 -53h345v364h-345 q-72 0 -126.5 -55t-54.5 -129zM271 1414q0 24 17 40.5t39 16.5q11 0 27 -7l309 -147q35 -17 35 -51q0 -24 -16 -38t-37 -14q-16 0 -34 8l-304 141q-36 16 -36 51z" />
<glyph unicode="&#xe1;" horiz-adv-x="966" d="M79 295q0 122 88 210t213 88h345v143q0 85 -46.5 140t-121.5 55h-357q-29 0 -46 15.5t-17 40.5q0 23 16 39t43 16h368q123 0 203.5 -85.5t80.5 -213.5v-657q0 -37 -25.5 -61.5t-63.5 -24.5h-379q-125 0 -213 86.5t-88 208.5zM199 295q0 -74 54 -127t127 -53h345v364h-345 q-72 0 -126.5 -55t-54.5 -129zM271 1267q0 34 35 50l309 147q16 7 27 7q22 0 39.5 -16.5t17.5 -40.5q0 -34 -45 -54l-296 -138q-18 -8 -33 -8q-21 0 -37.5 14.5t-16.5 38.5z" />
<glyph unicode="&#xe2;" horiz-adv-x="966" d="M79 295q0 122 88 210t213 88h345v143q0 85 -46.5 140t-121.5 55h-357q-29 0 -46 15.5t-17 40.5q0 23 16 39t43 16h368q123 0 203.5 -85.5t80.5 -213.5v-657q0 -37 -25.5 -61.5t-63.5 -24.5h-379q-125 0 -213 86.5t-88 208.5zM199 295q0 -74 54 -127t127 -53h345v364h-345 q-72 0 -126.5 -55t-54.5 -129zM221 1230q0 20 11 32l168 187q31 40 85 40q43 0 74 -37l174 -186q15 -18 15 -37q0 -20 -17 -35t-38 -15q-27 0 -46 21l-140 150q-10 11 -22 11t-22 -11l-143 -152q-18 -19 -44 -19q-23 0 -39 14.5t-16 36.5z" />
<glyph unicode="&#xe3;" horiz-adv-x="966" d="M79 295q0 122 88 210t213 88h345v143q0 85 -46.5 140t-121.5 55h-357q-29 0 -46 15.5t-17 40.5q0 23 16 39t43 16h368q123 0 203.5 -85.5t80.5 -213.5v-656q0 -37 -25.5 -62t-63.5 -25h-379q-125 0 -213 86.5t-88 208.5zM162 1294q0 24 22 44q98 85 178 88q34 1 63.5 -8 t44 -18.5t37.5 -28.5q25 -21 36 -29t34.5 -17.5t47.5 -7.5q31 2 94 58q13 13 32 13q24 0 40 -15.5t16 -38.5q0 -22 -14 -37q-32 -31 -80.5 -61t-85.5 -33q-32 -2 -61.5 7.5t-44 19t-41.5 31.5q-6 5 -9 7q-58 48 -97 48q-50 0 -122 -62q-15 -12 -34 -12q-22 0 -39 16t-17 36z M199 295q0 -74 54 -127t127 -53h345v364h-345q-72 0 -126.5 -55t-54.5 -129z" />
<glyph unicode="&#xe4;" horiz-adv-x="966" d="M79 295q0 122 88 210t213 88h345v143q0 85 -46.5 140t-121.5 55h-357q-29 0 -46 15.5t-17 40.5q0 23 16 39t43 16h368q123 0 203.5 -85.5t80.5 -213.5v-657q0 -37 -25.5 -61.5t-63.5 -24.5h-379q-125 0 -213 86.5t-88 208.5zM199 295q0 -74 54 -127t127 -53h345v364h-345 q-72 0 -126.5 -55t-54.5 -129zM270 1353v56q0 26 16 41.5t42 15.5q27 0 43.5 -16t16.5 -41v-56q0 -24 -16.5 -39.5t-43.5 -15.5t-42.5 15.5t-15.5 39.5zM582 1353v56q0 25 15.5 41t42.5 16q26 0 43 -16t17 -41v-56q0 -24 -16.5 -39.5t-43.5 -15.5t-42.5 15t-15.5 40z" />
<glyph unicode="&#xe5;" horiz-adv-x="966" d="M79 295q0 122 88 210t213 88h345v143q0 85 -46.5 140t-121.5 55h-357q-29 0 -46 15.5t-17 40.5q0 23 16.5 39t43.5 16h367q123 0 203.5 -85.5t80.5 -213.5v-657q0 -37 -25.5 -61.5t-63.5 -24.5h-379q-125 0 -213 86.5t-88 208.5zM199 295q0 -74 54 -127t127 -53h345v364 h-345q-72 0 -126.5 -55t-54.5 -129zM278 1304q0 82 60.5 142.5t145.5 60.5t146.5 -60.5t61.5 -142.5q0 -83 -61.5 -143.5t-146.5 -60.5t-145.5 60t-60.5 144zM379 1304q0 -46 31 -78t75 -32t75 32t31 78q0 44 -31.5 76.5t-74.5 32.5q-44 0 -75 -32t-31 -77z" />
<glyph unicode="&#xe6;" horiz-adv-x="1597" d="M79 295q0 122 88 210t213 88h345v143q0 85 -46.5 140t-121.5 55h-357q-29 0 -46 15.5t-17 40.5q0 23 16.5 39t43.5 16h367q83 0 147.5 -45t92.5 -120q46 79 127.5 122t182.5 43q191 0 295 -102.5t104 -294.5v-97q0 -36 -25.5 -60.5t-64.5 -24.5h-571v-57q8 -159 65 -227 t192 -68h311q28 0 44 -16t16 -40t-15.5 -39.5t-41.5 -15.5h-315q-197 0 -265 124l-17 -80q-15 -44 -67 -44h-379q-125 0 -213 86.5t-88 208.5zM199 295q0 -74 54 -127t127 -53h345v364h-345q-72 0 -126.5 -55t-54.5 -129zM849 565h541v88q-2 137 -71.5 207.5t-204.5 70.5 q-116 0 -186.5 -69.5t-78.5 -187.5v-109z" />
<glyph unicode="&#xe7;" horiz-adv-x="878" d="M103 432v192q0 206 100.5 312t302.5 106h230q26 0 42 -16t16 -39q0 -24 -16 -40t-42 -16h-230q-146 0 -214 -76t-68 -231v-193q0 -163 70.5 -241.5t211.5 -78.5h230q26 0 42 -16t16 -40t-16 -39.5t-42 -15.5h-230q-42 0 -71 4v-82q79 0 109.5 -30.5t30.5 -106.5 q0 -84 -39 -119t-125 -35h-66q-40 0 -40 37q0 15 10 26t25 11h68q41 0 53 18.5t12 59.5q0 35 -11 53.5t-41 18.5q-38 1 -53.5 17t-15.5 48v100q-249 70 -249 412z" />
<glyph unicode="&#xe8;" horiz-adv-x="974" d="M102 485l1 160q0 184 110 290.5t278 106.5q191 0 295 -102.5t104 -294.5v-97q0 -36 -25.5 -60t-64.5 -24h-573q1 -97 13.5 -161t42 -108.5t79 -64t124.5 -19.5h310q28 0 44.5 -16t16.5 -40t-15.5 -39.5t-41.5 -15.5h-316q-112 0 -187 29t-117.5 92.5t-60 150t-17.5 213.5 zM225 565h541v89q-2 136 -71 206.5t-204 70.5q-121 0 -192.5 -75t-73.5 -201v-90zM274 1411q0 24 17.5 40.5t39.5 16.5q13 0 27 -6l308 -147q36 -18 36 -52q0 -22 -17 -37t-37 -15q-16 0 -34 8l-304 141q-36 16 -36 51z" />
<glyph unicode="&#xe9;" horiz-adv-x="974" d="M102 485l1 160q0 184 110 290.5t278 106.5q191 0 295 -102.5t104 -294.5v-97q0 -36 -25.5 -60t-64.5 -24h-573q1 -97 13.5 -161t42 -108.5t79 -64t124.5 -19.5h310q28 0 44.5 -16t16.5 -40t-15.5 -39.5t-41.5 -15.5h-316q-112 0 -187 29t-117.5 92.5t-60 150t-17.5 213.5 zM225 565h541v89q-2 136 -71 206.5t-204 70.5q-121 0 -192.5 -75t-73.5 -201v-90zM274 1264q0 34 36 51l309 147q13 6 26 6q22 0 39.5 -16.5t17.5 -40.5q0 -34 -44 -54l-296 -138q-15 -7 -33 -7q-21 0 -38 14.5t-17 37.5z" />
<glyph unicode="&#xea;" horiz-adv-x="974" d="M103 485v160q0 184 110 290.5t278 106.5q191 0 295 -102.5t104 -294.5v-97q0 -36 -25.5 -60t-64.5 -24h-573q1 -97 13.5 -161t42 -108.5t79 -64t124.5 -19.5h310q28 0 44.5 -16t16.5 -40t-15.5 -39.5t-41.5 -15.5h-316q-112 0 -186.5 29t-117.5 92.5t-60 150t-17 213.5z M224 1228q0 18 12 31l168 187q31 40 85 40q43 0 74 -37l173 -186q15 -18 15 -37q0 -20 -17 -35t-38 -15q-26 0 -45 21l-141 150q-10 11 -22 11q-11 0 -21 -11l-143 -152q-18 -19 -45 -19q-23 0 -39 15t-16 37zM225 565h541v89q-2 136 -71 206.5t-204 70.5q-121 0 -192.5 -75 t-73.5 -201v-90z" />
<glyph unicode="&#xeb;" horiz-adv-x="974" d="M103 485v160q0 184 110 290.5t278 106.5q191 0 295 -102.5t104 -294.5v-97q0 -36 -25.5 -60t-64.5 -24h-573q1 -97 13.5 -161t42 -108.5t79 -64t124.5 -19.5h310q28 0 44.5 -16t16.5 -40t-15.5 -39.5t-41.5 -15.5h-316q-112 0 -186.5 29t-117.5 92.5t-60 150t-17 213.5z M225 565h541v89q-2 136 -71 206.5t-204 70.5q-121 0 -192.5 -75t-73.5 -201v-90zM273 1350v56q0 26 16 42t42 16q27 0 44 -16.5t17 -41.5v-55q0 -24 -17 -40t-44 -16t-42.5 15.5t-15.5 39.5zM585 1351v55q0 25 16 41.5t42 16.5t43 -16.5t17 -41.5v-56q0 -24 -16.5 -39.5 t-43.5 -15.5t-42.5 15.5t-15.5 40.5z" />
<glyph unicode="&#xec;" horiz-adv-x="409" d="M-7 1408q0 24 17 40t39 16q11 0 27 -7l309 -146q35 -17 35 -52q0 -24 -16 -38t-37 -14q-16 0 -34 8l-304 141q-36 16 -36 52zM154 57v926q0 26 15.5 43t43.5 17q26 0 44 -17t18 -43v-926q0 -25 -17.5 -41t-44.5 -16t-43 16t-16 41z" />
<glyph unicode="&#xed;" horiz-adv-x="409" d="M-7 1259q0 34 36 52l308 147q13 6 27 6q22 0 39.5 -16.5t17.5 -40.5q0 -34 -44 -54l-297 -138q-15 -7 -33 -7q-21 0 -37.5 13.5t-16.5 37.5zM154 57v926q0 26 15.5 43t43.5 17q26 0 44 -17t18 -43v-926q0 -25 -17.5 -41t-44.5 -16t-43 16t-16 41z" />
<glyph unicode="&#xee;" horiz-adv-x="409" d="M-57 1224q0 18 12 31l167 187q31 40 85 40q43 0 74 -37l174 -186q15 -18 15 -37q0 -20 -17 -35t-38 -15q-27 0 -46 21l-140 150q-10 11 -22 11t-22 -11l-142 -152q-18 -19 -45 -19q-22 0 -38.5 15.5t-16.5 36.5zM154 57v926q0 26 16 43t44 17q26 0 43.5 -17t17.5 -43 v-926q0 -25 -17 -41t-44 -16t-43.5 16t-16.5 41z" />
<glyph unicode="&#xef;" horiz-adv-x="409" d="M-8 1346v56q0 26 16 42t42 16q27 0 43.5 -16.5t16.5 -41.5v-56q0 -24 -16.5 -39.5t-43.5 -15.5t-42.5 15.5t-15.5 39.5zM154 57v926q0 26 15.5 43t43.5 17q26 0 44 -17t18 -43v-926q0 -25 -17.5 -41t-44.5 -16t-43 16t-16 41zM304 1346v56q0 25 16 41.5t42 16.5t43 -16.5 t17 -41.5v-56q0 -24 -16.5 -39.5t-43.5 -15.5t-42.5 15t-15.5 40z" />
<glyph unicode="&#xf0;" horiz-adv-x="1095" d="M96 401v84q0 360 436 362h340v105q0 144 -76 215l-141 -139q-15 -12 -32 -12q-18 0 -33.5 14.5t-15.5 35.5q0 25 18 39l145 140q-86 72 -234 72h-300q-25 0 -43.5 18.5t-18.5 40.5q0 23 18.5 40.5t47.5 17.5h295q221 0 345 -103l84 80q15 12 33 12q20 0 35 -14.5 t15 -34.5q0 -21 -21 -39l-82 -77q90 -116 90 -317v-471q0 -245 -113.5 -358.5t-342.5 -113.5q-218 0 -333.5 110.5t-115.5 292.5zM227 401q0 -135 78.5 -210.5t239.5 -75.5q170 0 248.5 81t78.5 278v257h-335q-310 0 -310 -246v-84z" />
<glyph unicode="&#xf1;" horiz-adv-x="1038" d="M137 59v892q0 37 25.5 64t67.5 27h363q136 0 231.5 -94t95.5 -249v-640q0 -23 -19 -41t-45 -18t-42.5 18t-16.5 41v640q0 103 -57 167.5t-147 64.5h-334v-869q0 -26 -17.5 -44t-43.5 -18q-27 0 -44 18t-17 41zM198 1287q0 24 22 44q98 85 177 88q34 1 64 -8t45 -19 t37 -28q48 -39 72 -48q21 -8 45 -6q31 2 94 58q13 13 32 13q23 0 40 -15.5t17 -38.5q0 -21 -14 -36q-32 -32 -80.5 -62t-85.5 -33q-26 -2 -47.5 2t-44.5 17.5t-31 19t-34 26.5q-58 48 -97 48q-49 0 -121 -62q-15 -12 -34 -12q-22 0 -39 16t-17 36z" />
<glyph unicode="&#xf2;" horiz-adv-x="1019" d="M102 349v315q0 162 98.5 269.5t247.5 107.5h125q148 0 246.5 -108t98.5 -269v-315q0 -158 -98.5 -257.5t-246.5 -99.5h-125q-148 0 -247 99.5t-99 257.5zM225 342q0 -105 62 -174t161 -69h125q99 0 161 69t62 174v332q0 108 -63 184.5t-160 76.5h-125q-97 0 -160 -76.5 t-63 -184.5v-332zM296 1415q0 24 17 40.5t39 16.5q14 0 28 -6l308 -147q36 -18 36 -51q0 -23 -16.5 -37.5t-37.5 -14.5q-16 0 -34 8l-304 141q-36 16 -36 50z" />
<glyph unicode="&#xf3;" horiz-adv-x="1019" d="M102 349v315q0 162 98.5 269.5t247.5 107.5h125q148 0 246.5 -108t98.5 -269v-315q0 -158 -98.5 -257.5t-246.5 -99.5h-125q-148 0 -247 99.5t-99 257.5zM225 342q0 -105 62 -174t161 -69h125q99 0 161 69t62 174v332q0 108 -63 184.5t-160 76.5h-125q-97 0 -160 -76.5 t-63 -184.5v-332zM296 1268q0 34 36 51l308 147q14 6 27 6q22 0 39.5 -16.5t17.5 -40.5q0 -34 -44 -54l-296 -137q-18 -8 -34 -8q-21 0 -37.5 14.5t-16.5 37.5z" />
<glyph unicode="&#xf4;" horiz-adv-x="1019" d="M103 349v315q0 162 98 269.5t247 107.5h125q148 0 246.5 -108t98.5 -269v-315q0 -158 -98.5 -257.5t-246.5 -99.5h-125q-148 0 -246.5 99.5t-98.5 257.5zM225 342q0 -105 62 -174t161 -69h125q99 0 161 69t62 174v332q0 108 -63 184.5t-160 76.5h-125q-97 0 -160 -76.5 t-63 -184.5v-332zM246 1232q0 18 12 31l168 187q31 40 85 40q42 0 73 -37l174 -186q15 -18 15 -37q0 -20 -17 -35t-38 -15q-26 0 -45 21l-141 150q-10 11 -22 11t-22 -11l-142 -151q-18 -20 -45 -20q-23 0 -39 15t-16 37z" />
<glyph unicode="&#xf5;" horiz-adv-x="1019" d="M102 349v315q0 162 98.5 269.5t247.5 107.5h125q148 0 246.5 -108t98.5 -269v-315q0 -158 -98.5 -257.5t-246.5 -99.5h-125q-148 0 -247 99.5t-99 257.5zM187 1295q0 23 23 44q98 85 177 88q34 1 64 -8t45 -19t37 -28q48 -39 72 -48q21 -8 45 -6q31 2 94 58q13 13 32 13 q23 0 40 -15.5t17 -37.5q0 -21 -15 -37q-32 -32 -80.5 -62t-85.5 -33q-32 -2 -61.5 7.5t-44 19t-41.5 31.5q-6 5 -9 7q-58 48 -97 48q-50 0 -121 -61q-16 -13 -34 -13q-22 0 -39.5 16t-17.5 36zM225 342q0 -105 62 -174t161 -69h125q99 0 161 69t62 174v332q0 108 -63 184.5 t-160 76.5h-125q-97 0 -160 -76.5t-63 -184.5v-332z" />
<glyph unicode="&#xf6;" horiz-adv-x="1019" d="M102 349v315q0 162 98.5 269.5t247.5 107.5h125q148 0 246.5 -108t98.5 -269v-315q0 -158 -98.5 -257.5t-246.5 -99.5h-125q-148 0 -247 99.5t-99 257.5zM225 342q0 -105 62 -174t161 -69h125q99 0 161 69t62 174v332q0 108 -63 184.5t-160 76.5h-125q-97 0 -160 -76.5 t-63 -184.5v-332zM295 1355v55q0 26 16 42t42 16q27 0 44 -16.5t17 -41.5v-55q0 -24 -17 -40t-44 -16t-42.5 15.5t-15.5 40.5zM607 1355v55q0 25 16 41.5t42 16.5t43 -16.5t17 -41.5v-55q0 -24 -16.5 -40t-43.5 -16t-42.5 15.5t-15.5 40.5z" />
<glyph unicode="&#xf7;" horiz-adv-x="903" d="M96 715q0 23 17.5 41t45.5 18h588q27 0 44.5 -17.5t17.5 -43.5q0 -25 -17.5 -41.5t-44.5 -16.5h-590q-27 2 -44 19t-17 41zM385 306v80q0 25 19.5 44t48.5 19q28 0 47 -18.5t19 -44.5v-76q0 -30 -19 -48.5t-47 -18.5q-29 0 -48.5 18t-19.5 45zM385 1039v79q0 26 19 45 t49 19q27 0 46.5 -19t19.5 -45v-75q0 -30 -19 -49t-47 -19q-29 0 -48.5 18.5t-19.5 45.5z" />
<glyph unicode="&#xf8;" horiz-adv-x="997" d="M92 349v315q0 162 98.5 269.5t247.5 107.5h125q45 0 92 -13l59 132q16 34 52 34q25 0 40 -14.5t15 -35.5q0 -16 -6 -28l-60 -135q71 -50 111.5 -133t40.5 -184v-315q0 -158 -98 -257.5t-246 -99.5h-125q-61 0 -115 18l-67 -151q-15 -32 -51 -32q-23 0 -39.5 16.5 t-16.5 34.5q0 10 5 22l71 161q-63 47 -98 121.5t-35 166.5zM215 342q0 -104 59 -171l337 758q-24 6 -48 6h-125q-97 0 -160 -76.5t-63 -184.5v-332zM367 109q31 -10 71 -10h125q99 0 161 69t62 174v332q0 125 -78 201z" />
<glyph unicode="&#xf9;" horiz-adv-x="1021" d="M120 342v641q0 22 18 40.5t45 18.5q26 0 42.5 -18.5t16.5 -40.5v-641q0 -101 60.5 -166t143.5 -65h334v868q0 25 17 44t44 19t44.5 -18.5t17.5 -40.5v-893q0 -37 -26 -63.5t-68 -26.5h-363q-136 0 -231 93t-95 249zM298 1415q0 24 17.5 40.5t39.5 16.5q13 0 27 -6 l308 -147q36 -18 36 -51q0 -23 -16.5 -37.5t-37.5 -14.5q-16 0 -34 8l-304 141q-36 16 -36 50z" />
<glyph unicode="&#xfa;" horiz-adv-x="1021" d="M120 342v641q0 22 18 40.5t45 18.5q26 0 42.5 -18.5t16.5 -40.5v-641q0 -101 60.5 -166t143.5 -65h334v868q0 25 17 44t44 19t44.5 -18.5t17.5 -40.5v-893q0 -37 -26 -63.5t-68 -26.5h-363q-136 0 -231 93t-95 249zM298 1268q0 34 36 51l308 147q14 6 27 6 q22 0 39.5 -16.5t17.5 -40.5q0 -34 -44 -54l-296 -137q-18 -8 -33 -8q-21 0 -38 14.5t-17 37.5z" />
<glyph unicode="&#xfb;" horiz-adv-x="1021" d="M120 342v641q0 22 18 40.5t45 18.5q26 0 42.5 -18.5t16.5 -40.5v-641q0 -101 60.5 -166t143.5 -65h334v868q0 25 17 44t44 19t44.5 -18.5t17.5 -40.5v-893q0 -37 -26 -63.5t-68 -26.5h-363q-136 0 -231 93t-95 249zM248 1232q0 18 12 31l168 187q31 40 85 40q42 0 73 -37 l174 -186q15 -18 15 -37q0 -20 -17 -35t-38 -15q-26 0 -45 21l-141 150q-10 11 -22 11t-22 -11l-142 -151q-18 -20 -45 -20q-23 0 -39 15t-16 37z" />
<glyph unicode="&#xfc;" horiz-adv-x="1021" d="M120 342v641q0 22 18 40.5t45 18.5q26 0 42.5 -18.5t16.5 -40.5v-641q0 -101 60.5 -166t143.5 -65h334v868q0 25 17 44t44 19t44.5 -18.5t17.5 -40.5v-893q0 -37 -26 -63.5t-68 -26.5h-363q-136 0 -231 93t-95 249zM297 1355v55q0 26 16 42t42 16q27 0 44 -16.5t17 -41.5 v-55q0 -24 -17 -40t-44 -16t-42.5 15.5t-15.5 40.5zM609 1355v55q0 25 16 41.5t42 16.5t43 -16.5t17 -41.5v-55q0 -24 -16.5 -40t-43.5 -16t-42.5 15.5t-15.5 40.5z" />
<glyph unicode="&#xfd;" horiz-adv-x="901" d="M48 985q0 21 14.5 37.5t40.5 18.5q23 2 40.5 -10.5t23.5 -32.5l268 -868q5 -15 13 -15t13 15l274 865q7 23 25.5 36t39.5 11q27 -1 41.5 -16t14.5 -37q0 -9 -3 -20l-437 -1387q-5 -17 -21 -28.5t-38 -10.5q-26 1 -41.5 18t-15.5 38q0 6 2 14l124 396l-26 3q-57 15 -75 70 l-275 887q-2 5 -2 16zM238 1263q0 35 36 51l308 147q14 6 27 6q22 0 39.5 -16.5t17.5 -40.5q0 -34 -44 -54l-296 -137q-18 -8 -34 -8q-21 0 -37.5 14.5t-16.5 37.5z" />
<glyph unicode="&#xfe;" horiz-adv-x="972" d="M98 -313v1688q0 26 16.5 42.5t43.5 16.5t45 -17t18 -42v-333h325q70 0 128 -26t94.5 -67t62 -93.5t36 -103t10.5 -98.5v-312q0 -155 -95.5 -248.5t-231.5 -93.5h-329v-313q0 -26 -18 -44t-45 -18q-25 0 -42.5 18t-17.5 44zM221 110h330q83 0 143.5 65.5t60.5 166.5v307 q0 121 -60.5 198.5t-148.5 77.5h-325v-815z" />
<glyph unicode="&#xff;" horiz-adv-x="901" d="M48 985q0 21 14.5 37.5t40.5 18.5q23 2 40.5 -10.5t23.5 -32.5l268 -868q5 -15 13 -15t13 15l274 865q7 23 25.5 36t39.5 11q27 -1 41.5 -16t14.5 -37q0 -9 -3 -20l-437 -1387q-5 -17 -21 -28.5t-38 -10.5q-26 1 -41.5 18t-15.5 38q0 6 2 14l124 396l-26 3q-57 15 -75 70 l-275 887q-2 5 -2 16zM237 1350v56q0 26 16 41.5t42 15.5q27 0 43.5 -16t16.5 -41v-56q0 -24 -16.5 -40t-43.5 -16t-42.5 16t-15.5 40zM549 1350v56q0 25 15.5 41t42.5 16q26 0 43 -16t17 -41v-56q0 -24 -16.5 -40t-43.5 -16t-42.5 15.5t-15.5 40.5z" />
<glyph unicode="&#x152;" horiz-adv-x="2037" d="M140 485v451q0 498 487 498h93q277 0 376 -175l22 132q10 43 61 43h697q32 0 50 -17t18 -44q0 -26 -17.5 -43t-46.5 -17h-673v-508h551q30 0 49 -17t19 -43q0 -27 -18.5 -44t-45.5 -17h-555v-563h669q31 0 49.5 -17t18.5 -43t-17.5 -43.5t-46.5 -17.5h-701q-54 0 -65 44 l-20 144q-110 -188 -374 -188h-93q-228 0 -357.5 133t-129.5 352zM271 485q0 -164 94 -266t262 -102h93q169 0 263 102t94 266v451q0 380 -357 380h-93q-356 0 -356 -380v-451z" />
<glyph unicode="&#x153;" horiz-adv-x="1705" d="M103 349v315q0 162 98 269.5t247 107.5h125q96 0 172.5 -52t115.5 -138q43 92 129 141.5t195 49.5q191 0 295 -102.5t104 -294.5v-97q0 -36 -25.5 -60t-64.5 -24h-573q4 -199 58.5 -276t199.5 -77h311q28 0 44.5 -16t16.5 -40t-15.5 -39.5t-41.5 -15.5h-316 q-129 0 -205 42.5t-113 132.5q-37 -85 -113.5 -134t-173.5 -49h-125q-148 0 -246.5 99.5t-98.5 257.5zM225 342q0 -105 62 -174t161 -69h125q99 0 161 69t62 174v332q0 108 -63 184.5t-160 76.5h-125q-97 0 -160 -76.5t-63 -184.5v-332zM919 565h541v91q-5 275 -275 275 q-121 0 -192 -74.5t-74 -200.5v-91z" />
<glyph unicode="&#x178;" horiz-adv-x="1120" d="M75 1372q0 25 18.5 42.5t50.5 17.5t50 -29l370 -607l362 606q17 30 53 30q31 0 49 -18t18 -42q0 -16 -8 -29l-410 -690v-592q0 -26 -18 -43.5t-46 -17.5t-46 17.5t-18 43.5v592l-415 686q-10 17 -10 33zM346 1738v56q0 25 16.5 41t42.5 16q27 0 43.5 -16t16.5 -41v-56 q0 -24 -16.5 -40t-43.5 -16t-43 16t-16 40zM658 1738v56q0 25 15.5 41t42.5 16q26 0 43 -16t17 -41v-56q0 -24 -16.5 -40t-43.5 -16t-42.5 15.5t-15.5 40.5z" />
<glyph unicode="&#x2c6;" horiz-adv-x="647" d="M61 1224q0 19 11 31l168 187q31 40 85 40q43 0 74 -37l174 -186q15 -18 15 -37q0 -20 -17 -35t-38 -15q-27 0 -46 21l-140 150q-10 11 -22 11t-22 -11l-143 -152q-18 -19 -44 -19q-23 0 -39 15t-16 37z" />
<glyph unicode="&#x2dc;" horiz-adv-x="772" d="M64 1287q0 23 23 44q98 85 177 88q34 1 64 -8t45 -19t37 -28q2 -2 7 -6q21 -17 33 -25.5t33.5 -16.5t43.5 -6q31 2 94 58q13 13 32 13q23 0 40 -15.5t17 -38.5q0 -19 -15 -36q-19 -19 -45.5 -38.5t-61 -37t-59.5 -19.5q-32 -2 -61 7t-44.5 19.5t-41.5 31.5q-6 5 -9 7 q-11 9 -18 14.5t-18 12.5t-19.5 11t-19.5 7t-22 3q-31 0 -58 -15.5t-63 -46.5q-15 -12 -35 -12q-21 0 -38.5 16.5t-17.5 35.5z" />
<glyph unicode="&#x2000;" horiz-adv-x="946" />
<glyph unicode="&#x2001;" horiz-adv-x="1892" />
<glyph unicode="&#x2002;" horiz-adv-x="946" />
<glyph unicode="&#x2003;" horiz-adv-x="1892" />
<glyph unicode="&#x2004;" horiz-adv-x="630" />
<glyph unicode="&#x2005;" horiz-adv-x="473" />
<glyph unicode="&#x2006;" horiz-adv-x="315" />
<glyph unicode="&#x2007;" horiz-adv-x="315" />
<glyph unicode="&#x2008;" horiz-adv-x="236" />
<glyph unicode="&#x2009;" horiz-adv-x="378" />
<glyph unicode="&#x200a;" horiz-adv-x="105" />
<glyph unicode="&#x2010;" horiz-adv-x="870" d="M96 536q0 23 17.5 40t44.5 17h557q27 0 43.5 -16.5t16.5 -42.5q0 -27 -16 -43t-44 -16h-556q-63 2 -63 61z" />
<glyph unicode="&#x2011;" horiz-adv-x="870" d="M96 536q0 23 17.5 40t44.5 17h557q27 0 43.5 -16.5t16.5 -42.5q0 -27 -16 -43t-44 -16h-556q-63 2 -63 61z" />
<glyph unicode="&#x2012;" horiz-adv-x="870" d="M96 536q0 23 17.5 40t44.5 17h557q27 0 43.5 -16.5t16.5 -42.5q0 -27 -16 -43t-44 -16h-556q-63 2 -63 61z" />
<glyph unicode="&#x2013;" horiz-adv-x="1036" d="M96 555q0 23 18.5 40.5t45.5 17.5h721q27 0 44 -17t17 -43t-17 -42t-44 -16h-723q-26 3 -44 19t-18 41z" />
<glyph unicode="&#x2014;" horiz-adv-x="1306" d="M97 555q0 23 17.5 40.5t45.5 17.5h989q27 0 43.5 -17t16.5 -43t-16.5 -42t-43.5 -16h-991q-27 2 -44 19t-17 41z" />
<glyph unicode="&#x2018;" horiz-adv-x="372" d="M93 1163v139q0 58 40 99.5t91 54.5q26 2 44.5 -12.5t20.5 -38.5q0 -2 0.5 -4.5t0.5 -3.5q0 -26 -28 -39q-42 -25 -42 -72v-123q0 -26 -17 -44t-45 -18q-27 0 -46 19t-19 43z" />
<glyph unicode="&#x2019;" horiz-adv-x="374" d="M84 1161q0 26 28 39q42 25 42 72v123q0 26 17.5 44t45.5 18q27 0 46 -19t19 -43v-139q0 -58 -40.5 -99.5t-91.5 -54.5q-27 -2 -45 12t-20 38q0 2 -0.5 5t-0.5 4z" />
<glyph unicode="&#x201a;" horiz-adv-x="374" d="M84 -68q0 26 28 39q42 23 42 72v123q0 26 17.5 44t45.5 18q27 0 46 -19t19 -43v-139q0 -57 -41 -99.5t-91 -54.5q-27 -2 -45 12t-20 39q0 1 -0.5 3.5t-0.5 4.5z" />
<glyph unicode="&#x201c;" horiz-adv-x="651" d="M84 1164v139q0 58 40 99.5t91 54.5q26 2 44.5 -12.5t20.5 -38.5q0 -2 0.5 -4t0.5 -4q0 -26 -28 -39q-42 -25 -42 -72v-123q0 -26 -17 -44t-45 -18q-27 0 -46 19t-19 43zM364 1164v139q0 58 40 99.5t91 54.5q26 2 44.5 -12.5t20.5 -38.5q0 -2 0.5 -4t0.5 -4q0 -26 -28 -39 q-42 -25 -42 -72v-123q0 -26 -17.5 -44t-45.5 -18q-26 0 -45 19t-19 43z" />
<glyph unicode="&#x201d;" horiz-adv-x="651" d="M84 1153v8q0 26 28 39q41 24 41 72v123q0 26 17.5 44t45.5 18q27 0 46 -19t19 -43v-139q0 -58 -40 -99.5t-91 -54.5q-27 -2 -45.5 12.5t-20.5 38.5zM364 1152v8q0 27 28 40q41 24 41 72v123q0 26 17.5 44t45.5 18q27 0 46 -19t19 -43v-139q0 -58 -40 -99.5t-91 -54.5 q-27 -2 -45.5 12t-20.5 38z" />
<glyph unicode="&#x201e;" horiz-adv-x="651" d="M84 -68q0 26 28 39q42 23 42 72v123q0 26 17.5 44t45.5 18q27 0 46 -19t19 -43v-139q0 -57 -41 -99.5t-91 -54.5q-27 -2 -45 12t-20 39q0 1 -0.5 3.5t-0.5 4.5zM364 -68q0 26 28 39q42 23 42 72v123q0 26 17 44t45 18q27 0 46 -19t19 -43v-139q0 -57 -40.5 -99.5 t-90.5 -54.5q-27 -2 -45 12t-20 39q0 1 -0.5 3.5t-0.5 4.5z" />
<glyph unicode="&#x2022;" horiz-adv-x="653" d="M104 637q0 89 65 155t157 66q90 0 157.5 -66.5t67.5 -154.5q0 -91 -66.5 -155.5t-158.5 -64.5q-94 0 -158 64t-64 156z" />
<glyph unicode="&#x2026;" horiz-adv-x="954" d="M95 48v79q0 27 18.5 45.5t47.5 18.5t48 -18.5t19 -45.5v-75q0 -30 -19 -49t-48 -19t-47.5 18.5t-18.5 45.5zM410 48v79q0 27 19.5 45.5t48.5 18.5q27 0 46.5 -18.5t19.5 -45.5v-75q0 -31 -19 -49.5t-47 -18.5q-29 0 -48.5 18t-19.5 46zM726 48v79q0 27 19 45.5t49 18.5 q28 0 47 -18.5t19 -45.5v-75q0 -30 -19 -49t-47 -19q-29 0 -48.5 18t-19.5 46z" />
<glyph unicode="&#x202f;" horiz-adv-x="378" />
<glyph unicode="&#x2039;" horiz-adv-x="571" d="M93 553q0 49 48 87l232 178q18 13 37 13q23 0 41 -16t18 -39q0 -28 -23 -45l-198 -158q-12 -11 -12 -21t12 -21l194 -161q26 -19 26 -48q0 -22 -18 -39t-39 -17t-39 15l-240 199q-39 32 -39 73z" />
<glyph unicode="&#x203a;" horiz-adv-x="571" d="M102 776q0 23 18 39t41 16q19 0 37 -13l231 -178q48 -38 48 -87q0 -42 -38 -73l-240 -199q-18 -15 -39 -15t-39 17t-18 39q0 29 26 48l194 161q12 11 12 21t-12 21l-199 158q-22 16 -22 45z" />
<glyph unicode="&#x205f;" horiz-adv-x="473" />
<glyph unicode="&#x20ac;" horiz-adv-x="1206" d="M72 552q0 20 16.5 35.5t40.5 15.5h93v229h-96q-24 3 -39 17.5t-15 36.5q0 20 16.5 35.5t40.5 15.5h94v33q10 464 481 464h347q24 0 42.5 -18t18.5 -41t-18 -40.5t-43 -17.5h-347q-346 0 -353 -348l-1 -32h561q24 0 39.5 -15t15.5 -38t-15.5 -37.5t-39.5 -14.5h-561v-229 h561q24 0 39.5 -15t15.5 -38q0 -22 -15.5 -36.5t-39.5 -14.5h-559v-45q5 -153 97 -245t255 -92h343q29 0 47 -18t18 -41t-18.5 -40.5t-42.5 -17.5h-347q-220 0 -346.5 123t-134.5 330v46h-96q-24 2 -39.5 16.5t-15.5 36.5z" />
<glyph unicode="&#x2122;" horiz-adv-x="1617" d="M89 1385q0 17 14.5 33t31.5 16h515q20 0 35.5 -15.5t15.5 -33.5t-15 -32.5t-33 -14.5h-210v-692q0 -17 -15 -32.5t-32 -15.5q-18 0 -33.5 15t-15.5 33v692h-212q-18 0 -32 14t-14 33zM785 646v689q0 39 29 69t70 30q36 0 62.5 -19t34.5 -52l171 -586l183 588 q11 30 37.5 49.5t57.5 19.5q40 0 70.5 -30.5t30.5 -68.5v-689q0 -17 -15.5 -32.5t-33.5 -15.5t-33 15.5t-15 32.5v610q0 17 -12 17q-10 0 -14 -13l-200 -618q-15 -44 -57 -44q-21 0 -37.5 14t-24.5 38l-183 605q-4 13 -13 13q-12 0 -12 -16v-606q0 -17 -16 -32.5t-33 -15.5 q-18 0 -32.5 15t-14.5 33z" />
<glyph unicode="&#xfb01;" horiz-adv-x="1095" d="M48 986q0 25 16 40.5t42 15.5h94q15 192 107.5 289t258.5 124q31 4 50 -12t19 -42q0 -22 -12.5 -36.5t-32.5 -18.5q-130 -20 -194 -97t-73 -207h257q25 0 41 -15.5t16 -40.5q0 -23 -16 -38.5t-41 -15.5h-257v-872q0 -27 -18 -43.5t-44 -16.5t-43.5 17t-17.5 42v872h-94 q-26 0 -42 16t-16 39zM839 57v926q0 26 16 43t44 17q26 0 43.5 -17t17.5 -43v-926q0 -25 -17 -41t-44 -16t-43.5 16t-16.5 41zM839 1325v40q0 26 16 42.5t44 16.5q26 0 43.5 -17t17.5 -42v-40q0 -25 -16.5 -40.5t-44.5 -15.5t-44 15.5t-16 40.5z" />
<glyph unicode="&#xfb02;" horiz-adv-x="1079" d="M48 986q0 25 16 40.5t42 15.5h94q15 192 107.5 289t258.5 124q31 4 50 -12t19 -42q0 -22 -12.5 -36.5t-32.5 -18.5q-130 -20 -194 -97t-73 -207h257q25 0 41 -15.5t16 -40.5q0 -23 -16 -38.5t-41 -15.5h-257v-872q0 -27 -18 -43.5t-44 -16.5t-43.5 17t-17.5 42v872h-94 q-26 0 -42 16t-16 39zM839 59v1316q0 25 17.5 42t44.5 17q26 0 43.5 -17.5t17.5 -45.5v-1309q0 -28 -17 -45t-44 -17t-44.5 17t-17.5 42z" />
</font>
</defs>
</svg>
